<mxfile host="Electron" modified="2024-06-05T11:33:59.334Z" agent="Mozilla/5.0 (Windows NT 10.0; Win64; x64) AppleWebKit/537.36 (KHTML, like Gecko) draw.io/24.4.13 Chrome/124.0.6367.207 Electron/30.0.6 Safari/537.36" etag="jMaeImBUkqRneN4_Uf9-" version="24.4.13" type="device">
  <diagram name="Page-1" id="1X28ZafjzpVTvF5lnrxb">
    <mxGraphModel dx="683" dy="398" grid="1" gridSize="5" guides="1" tooltips="1" connect="1" arrows="1" fold="1" page="1" pageScale="1" pageWidth="850" pageHeight="1100" math="0" shadow="0">
      <root>
        <mxCell id="0" />
        <mxCell id="1" parent="0" />
        <mxCell id="rEkYpKIjq7FoAjk0Uec6-551" value="" style="group" parent="1" vertex="1" connectable="0">
          <mxGeometry x="590" y="190" width="260.20000000000005" height="260" as="geometry" />
        </mxCell>
        <mxCell id="rEkYpKIjq7FoAjk0Uec6-6" value="" style="endArrow=none;html=1;rounded=0;entryX=0.5;entryY=1;entryDx=0;entryDy=0;strokeColor=#007FFF;" parent="rEkYpKIjq7FoAjk0Uec6-551" edge="1">
          <mxGeometry width="50" height="50" relative="1" as="geometry">
            <mxPoint x="120.20000000000005" y="120" as="sourcePoint" />
            <mxPoint x="120.20000000000005" y="85" as="targetPoint" />
          </mxGeometry>
        </mxCell>
        <mxCell id="rEkYpKIjq7FoAjk0Uec6-7" value="" style="endArrow=none;html=1;rounded=0;strokeColor=#007FFF;" parent="rEkYpKIjq7FoAjk0Uec6-551" edge="1">
          <mxGeometry width="50" height="50" relative="1" as="geometry">
            <mxPoint x="120.20000000000005" y="120" as="sourcePoint" />
            <mxPoint x="140.20000000000005" y="120" as="targetPoint" />
          </mxGeometry>
        </mxCell>
        <mxCell id="rEkYpKIjq7FoAjk0Uec6-8" value="" style="endArrow=none;html=1;rounded=0;strokeColor=#007FFF;" parent="rEkYpKIjq7FoAjk0Uec6-551" edge="1">
          <mxGeometry width="50" height="50" relative="1" as="geometry">
            <mxPoint x="120.20000000000005" y="140" as="sourcePoint" />
            <mxPoint x="140.20000000000005" y="140" as="targetPoint" />
          </mxGeometry>
        </mxCell>
        <mxCell id="rEkYpKIjq7FoAjk0Uec6-9" value="" style="endArrow=none;html=1;rounded=0;strokeColor=#007FFF;" parent="rEkYpKIjq7FoAjk0Uec6-551" edge="1">
          <mxGeometry width="50" height="50" relative="1" as="geometry">
            <mxPoint x="140.20000000000005" y="120" as="sourcePoint" />
            <mxPoint x="140.20000000000005" y="140" as="targetPoint" />
          </mxGeometry>
        </mxCell>
        <mxCell id="rEkYpKIjq7FoAjk0Uec6-10" value="" style="endArrow=none;html=1;rounded=0;strokeColor=#007FFF;" parent="rEkYpKIjq7FoAjk0Uec6-551" edge="1">
          <mxGeometry width="50" height="50" relative="1" as="geometry">
            <mxPoint x="120" y="140" as="sourcePoint" />
            <mxPoint x="120" y="160" as="targetPoint" />
          </mxGeometry>
        </mxCell>
        <mxCell id="rEkYpKIjq7FoAjk0Uec6-11" value="" style="endArrow=none;html=1;rounded=0;strokeColor=#007FFF;" parent="rEkYpKIjq7FoAjk0Uec6-551" edge="1">
          <mxGeometry width="50" height="50" relative="1" as="geometry">
            <mxPoint x="100.20000000000005" y="160" as="sourcePoint" />
            <mxPoint x="100.20000000000005" y="180" as="targetPoint" />
          </mxGeometry>
        </mxCell>
        <mxCell id="rEkYpKIjq7FoAjk0Uec6-12" value="" style="endArrow=none;html=1;rounded=0;strokeColor=#007FFF;" parent="rEkYpKIjq7FoAjk0Uec6-551" edge="1">
          <mxGeometry width="50" height="50" relative="1" as="geometry">
            <mxPoint x="100.39999999999998" y="160" as="sourcePoint" />
            <mxPoint x="120.39999999999998" y="160" as="targetPoint" />
          </mxGeometry>
        </mxCell>
        <mxCell id="rEkYpKIjq7FoAjk0Uec6-13" value="" style="endArrow=none;html=1;rounded=0;strokeColor=#007FFF;" parent="rEkYpKIjq7FoAjk0Uec6-551" edge="1">
          <mxGeometry width="50" height="50" relative="1" as="geometry">
            <mxPoint x="100.39999999999998" y="180" as="sourcePoint" />
            <mxPoint x="120.39999999999998" y="180" as="targetPoint" />
          </mxGeometry>
        </mxCell>
        <mxCell id="rEkYpKIjq7FoAjk0Uec6-15" value="" style="endArrow=none;html=1;rounded=0;strokeColor=#007FFF;" parent="rEkYpKIjq7FoAjk0Uec6-551" edge="1">
          <mxGeometry width="50" height="50" relative="1" as="geometry">
            <mxPoint x="120" y="180" as="sourcePoint" />
            <mxPoint x="120.20000000000005" y="220" as="targetPoint" />
          </mxGeometry>
        </mxCell>
        <mxCell id="rEkYpKIjq7FoAjk0Uec6-16" value="" style="endArrow=none;html=1;rounded=0;strokeColor=#007FFF;" parent="rEkYpKIjq7FoAjk0Uec6-551" edge="1">
          <mxGeometry width="50" height="50" relative="1" as="geometry">
            <mxPoint x="100.39999999999998" y="220" as="sourcePoint" />
            <mxPoint x="120.39999999999998" y="220" as="targetPoint" />
          </mxGeometry>
        </mxCell>
        <mxCell id="rEkYpKIjq7FoAjk0Uec6-17" value="" style="endArrow=none;html=1;rounded=0;strokeColor=#007FFF;" parent="rEkYpKIjq7FoAjk0Uec6-551" edge="1">
          <mxGeometry width="50" height="50" relative="1" as="geometry">
            <mxPoint x="100.20000000000005" y="220" as="sourcePoint" />
            <mxPoint x="100.20000000000005" y="240" as="targetPoint" />
          </mxGeometry>
        </mxCell>
        <mxCell id="rEkYpKIjq7FoAjk0Uec6-21" value="" style="endArrow=none;html=1;rounded=0;strokeColor=#007FFF;" parent="rEkYpKIjq7FoAjk0Uec6-551" edge="1">
          <mxGeometry width="50" height="50" relative="1" as="geometry">
            <mxPoint x="60.200000000000045" y="240" as="sourcePoint" />
            <mxPoint x="100.20000000000005" y="240" as="targetPoint" />
          </mxGeometry>
        </mxCell>
        <mxCell id="rEkYpKIjq7FoAjk0Uec6-22" value="" style="endArrow=none;html=1;rounded=0;strokeColor=#007FFF;" parent="rEkYpKIjq7FoAjk0Uec6-551" edge="1">
          <mxGeometry width="50" height="50" relative="1" as="geometry">
            <mxPoint x="0.20000000000004547" y="200" as="sourcePoint" />
            <mxPoint x="60.200000000000045" y="200" as="targetPoint" />
          </mxGeometry>
        </mxCell>
        <mxCell id="rEkYpKIjq7FoAjk0Uec6-23" value="" style="endArrow=none;html=1;rounded=0;strokeColor=#007FFF;" parent="rEkYpKIjq7FoAjk0Uec6-551" edge="1">
          <mxGeometry width="50" height="50" relative="1" as="geometry">
            <mxPoint x="60" y="200" as="sourcePoint" />
            <mxPoint x="60.200000000000045" y="240" as="targetPoint" />
          </mxGeometry>
        </mxCell>
        <mxCell id="rEkYpKIjq7FoAjk0Uec6-25" value="" style="endArrow=none;html=1;rounded=0;strokeColor=#007FFF;" parent="rEkYpKIjq7FoAjk0Uec6-551" edge="1">
          <mxGeometry width="50" height="50" relative="1" as="geometry">
            <mxPoint y="200" as="sourcePoint" />
            <mxPoint x="0.20000000000004547" y="240" as="targetPoint" />
          </mxGeometry>
        </mxCell>
        <mxCell id="rEkYpKIjq7FoAjk0Uec6-27" value="" style="endArrow=none;html=1;rounded=0;strokeColor=#007FFF;" parent="rEkYpKIjq7FoAjk0Uec6-551" edge="1">
          <mxGeometry width="50" height="50" relative="1" as="geometry">
            <mxPoint x="0.20000000000004547" y="240" as="sourcePoint" />
            <mxPoint x="20.200000000000045" y="240" as="targetPoint" />
          </mxGeometry>
        </mxCell>
        <mxCell id="rEkYpKIjq7FoAjk0Uec6-28" value="" style="endArrow=none;html=1;rounded=0;strokeColor=#007FFF;" parent="rEkYpKIjq7FoAjk0Uec6-551" edge="1">
          <mxGeometry width="50" height="50" relative="1" as="geometry">
            <mxPoint x="20.200000000000045" y="240" as="sourcePoint" />
            <mxPoint x="20.200000000000045" y="260" as="targetPoint" />
          </mxGeometry>
        </mxCell>
        <mxCell id="rEkYpKIjq7FoAjk0Uec6-31" value="" style="endArrow=none;html=1;rounded=0;entryX=0.5;entryY=0;entryDx=0;entryDy=0;strokeColor=#007FFF;" parent="rEkYpKIjq7FoAjk0Uec6-551" edge="1">
          <mxGeometry width="50" height="50" relative="1" as="geometry">
            <mxPoint x="120.20000000000005" y="60" as="sourcePoint" />
            <mxPoint x="120.20000000000005" y="75" as="targetPoint" />
          </mxGeometry>
        </mxCell>
        <mxCell id="rEkYpKIjq7FoAjk0Uec6-32" value="" style="endArrow=none;html=1;rounded=0;strokeColor=#007FFF;" parent="rEkYpKIjq7FoAjk0Uec6-551" edge="1">
          <mxGeometry width="50" height="50" relative="1" as="geometry">
            <mxPoint x="80.20000000000005" y="60" as="sourcePoint" />
            <mxPoint x="120.20000000000005" y="60" as="targetPoint" />
          </mxGeometry>
        </mxCell>
        <mxCell id="rEkYpKIjq7FoAjk0Uec6-33" value="" style="endArrow=none;html=1;rounded=0;strokeColor=#007FFF;" parent="rEkYpKIjq7FoAjk0Uec6-551" edge="1">
          <mxGeometry width="50" height="50" relative="1" as="geometry">
            <mxPoint x="80.20000000000005" y="60" as="sourcePoint" />
            <mxPoint x="80.20000000000005" y="140" as="targetPoint" />
          </mxGeometry>
        </mxCell>
        <mxCell id="rEkYpKIjq7FoAjk0Uec6-34" value="" style="endArrow=none;html=1;rounded=0;strokeColor=#007FFF;" parent="rEkYpKIjq7FoAjk0Uec6-551" edge="1">
          <mxGeometry width="50" height="50" relative="1" as="geometry">
            <mxPoint x="40.200000000000045" y="140" as="sourcePoint" />
            <mxPoint x="80.20000000000005" y="140" as="targetPoint" />
          </mxGeometry>
        </mxCell>
        <mxCell id="rEkYpKIjq7FoAjk0Uec6-35" value="" style="endArrow=none;html=1;rounded=0;strokeColor=#007FFF;" parent="rEkYpKIjq7FoAjk0Uec6-551" edge="1">
          <mxGeometry width="50" height="50" relative="1" as="geometry">
            <mxPoint x="20.399999999999977" y="120" as="sourcePoint" />
            <mxPoint x="40.39999999999998" y="120" as="targetPoint" />
          </mxGeometry>
        </mxCell>
        <mxCell id="rEkYpKIjq7FoAjk0Uec6-36" value="" style="endArrow=none;html=1;rounded=0;strokeColor=#007FFF;" parent="rEkYpKIjq7FoAjk0Uec6-551" edge="1">
          <mxGeometry width="50" height="50" relative="1" as="geometry">
            <mxPoint x="40.200000000000045" y="120" as="sourcePoint" />
            <mxPoint x="40.200000000000045" y="140" as="targetPoint" />
          </mxGeometry>
        </mxCell>
        <mxCell id="rEkYpKIjq7FoAjk0Uec6-37" value="" style="endArrow=none;html=1;rounded=0;strokeColor=#007FFF;" parent="rEkYpKIjq7FoAjk0Uec6-551" edge="1">
          <mxGeometry width="50" height="50" relative="1" as="geometry">
            <mxPoint x="20.200000000000045" y="20" as="sourcePoint" />
            <mxPoint x="20" y="120" as="targetPoint" />
          </mxGeometry>
        </mxCell>
        <mxCell id="rEkYpKIjq7FoAjk0Uec6-38" value="" style="endArrow=none;html=1;rounded=0;strokeColor=#007FFF;" parent="rEkYpKIjq7FoAjk0Uec6-551" edge="1">
          <mxGeometry width="50" height="50" relative="1" as="geometry">
            <mxPoint x="20.200000000000045" y="20" as="sourcePoint" />
            <mxPoint x="80.20000000000005" y="20" as="targetPoint" />
          </mxGeometry>
        </mxCell>
        <mxCell id="rEkYpKIjq7FoAjk0Uec6-39" value="" style="endArrow=none;html=1;rounded=0;strokeColor=#007FFF;" parent="rEkYpKIjq7FoAjk0Uec6-551" edge="1">
          <mxGeometry width="50" height="50" relative="1" as="geometry">
            <mxPoint x="80.20000000000005" as="sourcePoint" />
            <mxPoint x="80.20000000000005" y="20" as="targetPoint" />
          </mxGeometry>
        </mxCell>
        <mxCell id="rEkYpKIjq7FoAjk0Uec6-40" value="" style="endArrow=none;html=1;rounded=0;strokeColor=#007FFF;" parent="rEkYpKIjq7FoAjk0Uec6-551" edge="1">
          <mxGeometry width="50" height="50" relative="1" as="geometry">
            <mxPoint x="80.20000000000005" as="sourcePoint" />
            <mxPoint x="140.20000000000005" as="targetPoint" />
          </mxGeometry>
        </mxCell>
        <mxCell id="rEkYpKIjq7FoAjk0Uec6-41" value="" style="endArrow=none;html=1;rounded=0;strokeColor=#007FFF;" parent="rEkYpKIjq7FoAjk0Uec6-551" edge="1">
          <mxGeometry width="50" height="50" relative="1" as="geometry">
            <mxPoint x="140.20000000000005" y="20" as="sourcePoint" />
            <mxPoint x="160.20000000000005" y="20" as="targetPoint" />
          </mxGeometry>
        </mxCell>
        <mxCell id="rEkYpKIjq7FoAjk0Uec6-42" value="" style="endArrow=none;html=1;rounded=0;strokeColor=#007FFF;" parent="rEkYpKIjq7FoAjk0Uec6-551" edge="1">
          <mxGeometry width="50" height="50" relative="1" as="geometry">
            <mxPoint x="160" y="20" as="sourcePoint" />
            <mxPoint x="160" y="40" as="targetPoint" />
          </mxGeometry>
        </mxCell>
        <mxCell id="rEkYpKIjq7FoAjk0Uec6-43" value="" style="endArrow=none;html=1;rounded=0;strokeColor=#007FFF;" parent="rEkYpKIjq7FoAjk0Uec6-551" edge="1">
          <mxGeometry width="50" height="50" relative="1" as="geometry">
            <mxPoint x="140.20000000000005" as="sourcePoint" />
            <mxPoint x="140.20000000000005" y="20" as="targetPoint" />
          </mxGeometry>
        </mxCell>
        <mxCell id="rEkYpKIjq7FoAjk0Uec6-44" value="" style="endArrow=none;html=1;rounded=0;strokeColor=#007FFF;" parent="rEkYpKIjq7FoAjk0Uec6-551" edge="1">
          <mxGeometry width="50" height="50" relative="1" as="geometry">
            <mxPoint x="160.20000000000005" y="40" as="sourcePoint" />
            <mxPoint x="220.20000000000005" y="40" as="targetPoint" />
          </mxGeometry>
        </mxCell>
        <mxCell id="rEkYpKIjq7FoAjk0Uec6-45" value="" style="endArrow=none;html=1;rounded=0;strokeColor=#007FFF;" parent="rEkYpKIjq7FoAjk0Uec6-551" edge="1">
          <mxGeometry width="50" height="50" relative="1" as="geometry">
            <mxPoint x="220.20000000000005" y="20" as="sourcePoint" />
            <mxPoint x="220.20000000000005" y="40" as="targetPoint" />
          </mxGeometry>
        </mxCell>
        <mxCell id="rEkYpKIjq7FoAjk0Uec6-46" value="" style="endArrow=none;html=1;rounded=0;strokeColor=#007FFF;" parent="rEkYpKIjq7FoAjk0Uec6-551" edge="1">
          <mxGeometry width="50" height="50" relative="1" as="geometry">
            <mxPoint x="220.20000000000005" y="20" as="sourcePoint" />
            <mxPoint x="260.20000000000005" y="20" as="targetPoint" />
          </mxGeometry>
        </mxCell>
        <mxCell id="rEkYpKIjq7FoAjk0Uec6-48" value="" style="endArrow=none;html=1;rounded=0;strokeColor=#007FFF;" parent="rEkYpKIjq7FoAjk0Uec6-551" edge="1">
          <mxGeometry width="50" height="50" relative="1" as="geometry">
            <mxPoint x="260.20000000000005" y="20" as="sourcePoint" />
            <mxPoint x="260.20000000000005" y="40" as="targetPoint" />
          </mxGeometry>
        </mxCell>
        <mxCell id="rEkYpKIjq7FoAjk0Uec6-50" value="" style="endArrow=none;html=1;rounded=0;exitX=1;exitY=0.5;exitDx=0;exitDy=0;strokeColor=#007FFF;" parent="rEkYpKIjq7FoAjk0Uec6-551" edge="1">
          <mxGeometry width="50" height="50" relative="1" as="geometry">
            <mxPoint x="125.20000000000005" y="80" as="sourcePoint" />
            <mxPoint x="180.20000000000005" y="80" as="targetPoint" />
          </mxGeometry>
        </mxCell>
        <mxCell id="rEkYpKIjq7FoAjk0Uec6-51" value="" style="endArrow=none;html=1;rounded=0;strokeColor=#007FFF;" parent="rEkYpKIjq7FoAjk0Uec6-551" edge="1">
          <mxGeometry width="50" height="50" relative="1" as="geometry">
            <mxPoint x="180.20000000000005" y="80" as="sourcePoint" />
            <mxPoint x="180.20000000000005" y="100" as="targetPoint" />
          </mxGeometry>
        </mxCell>
        <mxCell id="rEkYpKIjq7FoAjk0Uec6-52" value="" style="endArrow=none;html=1;rounded=0;strokeColor=#007FFF;" parent="rEkYpKIjq7FoAjk0Uec6-551" edge="1">
          <mxGeometry width="50" height="50" relative="1" as="geometry">
            <mxPoint x="180.20000000000005" y="100" as="sourcePoint" />
            <mxPoint x="200.20000000000005" y="100" as="targetPoint" />
          </mxGeometry>
        </mxCell>
        <mxCell id="rEkYpKIjq7FoAjk0Uec6-53" value="" style="endArrow=none;html=1;rounded=0;strokeColor=#007FFF;" parent="rEkYpKIjq7FoAjk0Uec6-551" edge="1">
          <mxGeometry width="50" height="50" relative="1" as="geometry">
            <mxPoint x="199.79999999999995" y="80" as="sourcePoint" />
            <mxPoint x="199.79999999999995" y="100" as="targetPoint" />
          </mxGeometry>
        </mxCell>
        <mxCell id="rEkYpKIjq7FoAjk0Uec6-54" value="" style="endArrow=none;html=1;rounded=0;strokeColor=#007FFF;" parent="rEkYpKIjq7FoAjk0Uec6-551" edge="1">
          <mxGeometry width="50" height="50" relative="1" as="geometry">
            <mxPoint x="200.20000000000005" y="79.80000000000001" as="sourcePoint" />
            <mxPoint x="220.20000000000005" y="79.80000000000001" as="targetPoint" />
          </mxGeometry>
        </mxCell>
        <mxCell id="rEkYpKIjq7FoAjk0Uec6-55" value="" style="endArrow=none;html=1;rounded=0;strokeColor=#007FFF;" parent="rEkYpKIjq7FoAjk0Uec6-551" edge="1">
          <mxGeometry width="50" height="50" relative="1" as="geometry">
            <mxPoint x="220.39999999999998" y="80" as="sourcePoint" />
            <mxPoint x="220.20000000000005" y="180" as="targetPoint" />
          </mxGeometry>
        </mxCell>
        <mxCell id="rEkYpKIjq7FoAjk0Uec6-56" value="" style="endArrow=none;html=1;rounded=0;strokeColor=#007FFF;" parent="rEkYpKIjq7FoAjk0Uec6-551" edge="1">
          <mxGeometry width="50" height="50" relative="1" as="geometry">
            <mxPoint x="160.20000000000005" y="180" as="sourcePoint" />
            <mxPoint x="220.20000000000005" y="180" as="targetPoint" />
          </mxGeometry>
        </mxCell>
        <mxCell id="rEkYpKIjq7FoAjk0Uec6-57" value="" style="endArrow=none;html=1;rounded=0;strokeColor=#007FFF;" parent="rEkYpKIjq7FoAjk0Uec6-551" edge="1">
          <mxGeometry width="50" height="50" relative="1" as="geometry">
            <mxPoint x="160.20000000000005" y="180" as="sourcePoint" />
            <mxPoint x="160.20000000000005" y="260" as="targetPoint" />
          </mxGeometry>
        </mxCell>
        <mxCell id="rEkYpKIjq7FoAjk0Uec6-58" value="" style="endArrow=none;html=1;rounded=0;strokeColor=#007FFF;" parent="rEkYpKIjq7FoAjk0Uec6-551" edge="1">
          <mxGeometry width="50" height="50" relative="1" as="geometry">
            <mxPoint x="160.20000000000005" y="259.8" as="sourcePoint" />
            <mxPoint x="200.20000000000005" y="259.8" as="targetPoint" />
          </mxGeometry>
        </mxCell>
        <mxCell id="rEkYpKIjq7FoAjk0Uec6-59" value="" style="endArrow=none;html=1;rounded=0;strokeColor=#007FFF;" parent="rEkYpKIjq7FoAjk0Uec6-551" edge="1">
          <mxGeometry width="50" height="50" relative="1" as="geometry">
            <mxPoint x="200.20000000000005" y="220" as="sourcePoint" />
            <mxPoint x="200.39999999999998" y="260" as="targetPoint" />
          </mxGeometry>
        </mxCell>
        <mxCell id="rEkYpKIjq7FoAjk0Uec6-60" value="" style="endArrow=none;html=1;rounded=0;strokeColor=#007FFF;" parent="rEkYpKIjq7FoAjk0Uec6-551" edge="1">
          <mxGeometry width="50" height="50" relative="1" as="geometry">
            <mxPoint x="200.20000000000005" y="220" as="sourcePoint" />
            <mxPoint x="240.20000000000005" y="220" as="targetPoint" />
          </mxGeometry>
        </mxCell>
        <mxCell id="rEkYpKIjq7FoAjk0Uec6-61" value="" style="endArrow=none;html=1;rounded=0;strokeColor=#007FFF;" parent="rEkYpKIjq7FoAjk0Uec6-551" edge="1">
          <mxGeometry width="50" height="50" relative="1" as="geometry">
            <mxPoint x="240.20000000000005" y="220" as="sourcePoint" />
            <mxPoint x="240.4000000000001" y="260" as="targetPoint" />
          </mxGeometry>
        </mxCell>
        <mxCell id="rEkYpKIjq7FoAjk0Uec6-62" value="" style="endArrow=none;html=1;rounded=0;strokeColor=#007FFF;" parent="rEkYpKIjq7FoAjk0Uec6-551" edge="1">
          <mxGeometry width="50" height="50" relative="1" as="geometry">
            <mxPoint x="260.20000000000005" y="259.79999999999995" as="sourcePoint" />
            <mxPoint x="260.20000000000005" y="259.8" as="targetPoint" />
          </mxGeometry>
        </mxCell>
        <mxCell id="rEkYpKIjq7FoAjk0Uec6-66" value="" style="endArrow=none;html=1;rounded=0;strokeColor=#007FFF;" parent="rEkYpKIjq7FoAjk0Uec6-551" edge="1">
          <mxGeometry width="50" height="50" relative="1" as="geometry">
            <mxPoint x="240.20000000000005" y="259.8" as="sourcePoint" />
            <mxPoint x="255.20000000000005" y="260" as="targetPoint" />
          </mxGeometry>
        </mxCell>
        <mxCell id="rEkYpKIjq7FoAjk0Uec6-71" value="" style="endArrow=none;html=1;rounded=0;" parent="1" edge="1">
          <mxGeometry width="50" height="50" relative="1" as="geometry">
            <mxPoint x="300" y="460" as="sourcePoint" />
            <mxPoint x="300" y="440" as="targetPoint" />
          </mxGeometry>
        </mxCell>
        <mxCell id="rEkYpKIjq7FoAjk0Uec6-72" value="" style="endArrow=none;html=1;rounded=0;" parent="1" edge="1">
          <mxGeometry width="50" height="50" relative="1" as="geometry">
            <mxPoint x="340" y="460" as="sourcePoint" />
            <mxPoint x="340" y="440" as="targetPoint" />
          </mxGeometry>
        </mxCell>
        <mxCell id="rEkYpKIjq7FoAjk0Uec6-73" value="" style="endArrow=none;html=1;rounded=0;" parent="1" edge="1">
          <mxGeometry width="50" height="50" relative="1" as="geometry">
            <mxPoint x="500" y="460" as="sourcePoint" />
            <mxPoint x="500" y="420" as="targetPoint" />
          </mxGeometry>
        </mxCell>
        <mxCell id="rEkYpKIjq7FoAjk0Uec6-74" value="" style="endArrow=none;html=1;rounded=0;" parent="1" edge="1">
          <mxGeometry width="50" height="50" relative="1" as="geometry">
            <mxPoint x="320" y="440" as="sourcePoint" />
            <mxPoint x="340" y="440" as="targetPoint" />
          </mxGeometry>
        </mxCell>
        <mxCell id="rEkYpKIjq7FoAjk0Uec6-76" value="" style="whiteSpace=wrap;html=1;aspect=fixed;fillColor=#CCCCCC;" parent="1" vertex="1">
          <mxGeometry x="240" y="400" width="20" height="20" as="geometry" />
        </mxCell>
        <mxCell id="rEkYpKIjq7FoAjk0Uec6-77" value="" style="whiteSpace=wrap;html=1;aspect=fixed;fillColor=#CCCCCC;" parent="1" vertex="1">
          <mxGeometry x="240" y="360" width="20" height="20" as="geometry" />
        </mxCell>
        <mxCell id="rEkYpKIjq7FoAjk0Uec6-78" value="" style="whiteSpace=wrap;html=1;aspect=fixed;fillColor=#CCCCCC;" parent="1" vertex="1">
          <mxGeometry x="240" y="320" width="20" height="20" as="geometry" />
        </mxCell>
        <mxCell id="rEkYpKIjq7FoAjk0Uec6-79" value="" style="whiteSpace=wrap;html=1;aspect=fixed;fillColor=#CCCCCC;" parent="1" vertex="1">
          <mxGeometry x="260" y="320" width="20" height="20" as="geometry" />
        </mxCell>
        <mxCell id="rEkYpKIjq7FoAjk0Uec6-80" value="" style="whiteSpace=wrap;html=1;aspect=fixed;fillColor=#CCCCCC;" parent="1" vertex="1">
          <mxGeometry x="300" y="280" width="20" height="20" as="geometry" />
        </mxCell>
        <mxCell id="rEkYpKIjq7FoAjk0Uec6-81" value="" style="whiteSpace=wrap;html=1;aspect=fixed;fillColor=#CCCCCC;" parent="1" vertex="1">
          <mxGeometry x="320" y="300" width="20" height="20" as="geometry" />
        </mxCell>
        <mxCell id="rEkYpKIjq7FoAjk0Uec6-82" value="" style="whiteSpace=wrap;html=1;aspect=fixed;fillColor=#CCCCCC;" parent="1" vertex="1">
          <mxGeometry x="300" y="240" width="20" height="20" as="geometry" />
        </mxCell>
        <mxCell id="rEkYpKIjq7FoAjk0Uec6-83" value="" style="whiteSpace=wrap;html=1;aspect=fixed;fillColor=#CCCCCC;" parent="1" vertex="1">
          <mxGeometry x="240" y="220" width="20" height="20" as="geometry" />
        </mxCell>
        <mxCell id="rEkYpKIjq7FoAjk0Uec6-84" value="" style="whiteSpace=wrap;html=1;aspect=fixed;fillColor=#CCCCCC;" parent="1" vertex="1">
          <mxGeometry x="240" y="180" width="20" height="20" as="geometry" />
        </mxCell>
        <mxCell id="rEkYpKIjq7FoAjk0Uec6-85" value="" style="whiteSpace=wrap;html=1;aspect=fixed;fillColor=#CCCCCC;" parent="1" vertex="1">
          <mxGeometry x="260" y="160" width="20" height="20" as="geometry" />
        </mxCell>
        <mxCell id="rEkYpKIjq7FoAjk0Uec6-86" value="" style="whiteSpace=wrap;html=1;aspect=fixed;fillColor=#CCCCCC;" parent="1" vertex="1">
          <mxGeometry x="280" y="180" width="20" height="20" as="geometry" />
        </mxCell>
        <mxCell id="rEkYpKIjq7FoAjk0Uec6-87" value="" style="whiteSpace=wrap;html=1;aspect=fixed;fillColor=#CCCCCC;" parent="1" vertex="1">
          <mxGeometry x="320" y="180" width="20" height="20" as="geometry" />
        </mxCell>
        <mxCell id="rEkYpKIjq7FoAjk0Uec6-88" value="" style="whiteSpace=wrap;html=1;aspect=fixed;fillColor=#CCCCCC;" parent="1" vertex="1">
          <mxGeometry x="380" y="160" width="20" height="20" as="geometry" />
        </mxCell>
        <mxCell id="rEkYpKIjq7FoAjk0Uec6-89" value="" style="whiteSpace=wrap;html=1;aspect=fixed;fillColor=#CCCCCC;" parent="1" vertex="1">
          <mxGeometry x="420" y="180" width="20" height="20" as="geometry" />
        </mxCell>
        <mxCell id="rEkYpKIjq7FoAjk0Uec6-90" value="" style="whiteSpace=wrap;html=1;aspect=fixed;fillColor=#CCCCCC;" parent="1" vertex="1">
          <mxGeometry x="460" y="180" width="20" height="20" as="geometry" />
        </mxCell>
        <mxCell id="rEkYpKIjq7FoAjk0Uec6-91" value="" style="whiteSpace=wrap;html=1;aspect=fixed;fillColor=#CCCCCC;" parent="1" vertex="1">
          <mxGeometry x="480" y="160" width="20" height="20" as="geometry" />
        </mxCell>
        <mxCell id="rEkYpKIjq7FoAjk0Uec6-92" value="" style="whiteSpace=wrap;html=1;aspect=fixed;fillColor=#CCCCCC;" parent="1" vertex="1">
          <mxGeometry x="500" y="220" width="20" height="20" as="geometry" />
        </mxCell>
        <mxCell id="rEkYpKIjq7FoAjk0Uec6-93" value="" style="whiteSpace=wrap;html=1;aspect=fixed;fillColor=#CCCCCC;" parent="1" vertex="1">
          <mxGeometry x="500" y="240" width="20" height="20" as="geometry" />
        </mxCell>
        <mxCell id="rEkYpKIjq7FoAjk0Uec6-94" value="" style="whiteSpace=wrap;html=1;aspect=fixed;fillColor=#CCCCCC;" parent="1" vertex="1">
          <mxGeometry x="520" y="240" width="20" height="20" as="geometry" />
        </mxCell>
        <mxCell id="rEkYpKIjq7FoAjk0Uec6-95" value="" style="whiteSpace=wrap;html=1;aspect=fixed;fillColor=#CCCCCC;" parent="1" vertex="1">
          <mxGeometry x="520" y="260" width="20" height="20" as="geometry" />
        </mxCell>
        <mxCell id="rEkYpKIjq7FoAjk0Uec6-96" value="" style="whiteSpace=wrap;html=1;aspect=fixed;fillColor=#CCCCCC;" parent="1" vertex="1">
          <mxGeometry x="500" y="260" width="20" height="20" as="geometry" />
        </mxCell>
        <mxCell id="rEkYpKIjq7FoAjk0Uec6-97" value="" style="whiteSpace=wrap;html=1;aspect=fixed;fillColor=#CCCCCC;" parent="1" vertex="1">
          <mxGeometry x="500" y="280" width="20" height="20" as="geometry" />
        </mxCell>
        <mxCell id="rEkYpKIjq7FoAjk0Uec6-98" value="" style="whiteSpace=wrap;html=1;aspect=fixed;fillColor=#CCCCCC;" parent="1" vertex="1">
          <mxGeometry x="520" y="280" width="20" height="20" as="geometry" />
        </mxCell>
        <mxCell id="rEkYpKIjq7FoAjk0Uec6-100" value="" style="whiteSpace=wrap;html=1;aspect=fixed;fillColor=#CCCCCC;" parent="1" vertex="1">
          <mxGeometry x="500" y="300" width="20" height="20" as="geometry" />
        </mxCell>
        <mxCell id="rEkYpKIjq7FoAjk0Uec6-101" value="" style="whiteSpace=wrap;html=1;aspect=fixed;fillColor=#CCCCCC;" parent="1" vertex="1">
          <mxGeometry x="460" y="300" width="20" height="20" as="geometry" />
        </mxCell>
        <mxCell id="rEkYpKIjq7FoAjk0Uec6-102" value="" style="whiteSpace=wrap;html=1;aspect=fixed;fillColor=#CCCCCC;" parent="1" vertex="1">
          <mxGeometry x="440" y="300" width="20" height="20" as="geometry" />
        </mxCell>
        <mxCell id="rEkYpKIjq7FoAjk0Uec6-103" value="" style="whiteSpace=wrap;html=1;aspect=fixed;fillColor=#CCCCCC;" parent="1" vertex="1">
          <mxGeometry x="420" y="320" width="20" height="20" as="geometry" />
        </mxCell>
        <mxCell id="rEkYpKIjq7FoAjk0Uec6-104" value="" style="whiteSpace=wrap;html=1;aspect=fixed;fillColor=#CCCCCC;" parent="1" vertex="1">
          <mxGeometry x="520" y="360" width="20" height="20" as="geometry" />
        </mxCell>
        <mxCell id="rEkYpKIjq7FoAjk0Uec6-105" value="" style="whiteSpace=wrap;html=1;aspect=fixed;fillColor=#CCCCCC;" parent="1" vertex="1">
          <mxGeometry x="520" y="400" width="20" height="20" as="geometry" />
        </mxCell>
        <mxCell id="rEkYpKIjq7FoAjk0Uec6-106" value="" style="whiteSpace=wrap;html=1;aspect=fixed;fillColor=#CCCCCC;" parent="1" vertex="1">
          <mxGeometry x="380" y="420" width="20" height="20" as="geometry" />
        </mxCell>
        <mxCell id="rEkYpKIjq7FoAjk0Uec6-107" value="" style="whiteSpace=wrap;html=1;aspect=fixed;fillColor=#CCCCCC;" parent="1" vertex="1">
          <mxGeometry x="400" y="420" width="20" height="20" as="geometry" />
        </mxCell>
        <mxCell id="rEkYpKIjq7FoAjk0Uec6-109" value="" style="whiteSpace=wrap;html=1;aspect=fixed;fillColor=#CCCCCC;" parent="1" vertex="1">
          <mxGeometry x="340" y="400" width="20" height="20" as="geometry" />
        </mxCell>
        <mxCell id="rEkYpKIjq7FoAjk0Uec6-110" value="" style="whiteSpace=wrap;html=1;aspect=fixed;fillColor=#CCCCCC;" parent="1" vertex="1">
          <mxGeometry x="340" y="360" width="20" height="20" as="geometry" />
        </mxCell>
        <mxCell id="rEkYpKIjq7FoAjk0Uec6-111" value="" style="endArrow=none;html=1;rounded=0;entryX=1;entryY=1;entryDx=0;entryDy=0;" parent="1" target="rEkYpKIjq7FoAjk0Uec6-110" edge="1">
          <mxGeometry width="50" height="50" relative="1" as="geometry">
            <mxPoint x="360" y="400" as="sourcePoint" />
            <mxPoint x="410" y="350" as="targetPoint" />
          </mxGeometry>
        </mxCell>
        <mxCell id="rEkYpKIjq7FoAjk0Uec6-112" value="" style="endArrow=none;html=1;rounded=0;exitX=0;exitY=-0.12;exitDx=0;exitDy=0;exitPerimeter=0;" parent="1" edge="1">
          <mxGeometry width="50" height="50" relative="1" as="geometry">
            <mxPoint x="400" y="420" as="sourcePoint" />
            <mxPoint x="400" y="400" as="targetPoint" />
          </mxGeometry>
        </mxCell>
        <mxCell id="rEkYpKIjq7FoAjk0Uec6-114" value="" style="endArrow=none;html=1;rounded=0;entryX=1;entryY=1;entryDx=0;entryDy=0;" parent="1" edge="1">
          <mxGeometry width="50" height="50" relative="1" as="geometry">
            <mxPoint x="420" y="420" as="sourcePoint" />
            <mxPoint x="420" y="400" as="targetPoint" />
          </mxGeometry>
        </mxCell>
        <mxCell id="rEkYpKIjq7FoAjk0Uec6-115" value="" style="endArrow=none;html=1;rounded=0;" parent="1" edge="1">
          <mxGeometry width="50" height="50" relative="1" as="geometry">
            <mxPoint x="400" y="400" as="sourcePoint" />
            <mxPoint x="420" y="400" as="targetPoint" />
          </mxGeometry>
        </mxCell>
        <mxCell id="rEkYpKIjq7FoAjk0Uec6-116" value="" style="endArrow=none;html=1;rounded=0;" parent="1" edge="1">
          <mxGeometry width="50" height="50" relative="1" as="geometry">
            <mxPoint x="480" y="420" as="sourcePoint" />
            <mxPoint x="500" y="420" as="targetPoint" />
          </mxGeometry>
        </mxCell>
        <mxCell id="rEkYpKIjq7FoAjk0Uec6-117" value="" style="endArrow=none;html=1;rounded=0;exitX=0;exitY=-0.12;exitDx=0;exitDy=0;exitPerimeter=0;" parent="1" edge="1">
          <mxGeometry width="50" height="50" relative="1" as="geometry">
            <mxPoint x="480" y="440" as="sourcePoint" />
            <mxPoint x="480" y="420" as="targetPoint" />
          </mxGeometry>
        </mxCell>
        <mxCell id="rEkYpKIjq7FoAjk0Uec6-118" value="" style="endArrow=none;html=1;rounded=0;" parent="1" edge="1">
          <mxGeometry width="50" height="50" relative="1" as="geometry">
            <mxPoint x="400" y="340" as="sourcePoint" />
            <mxPoint x="420" y="340" as="targetPoint" />
          </mxGeometry>
        </mxCell>
        <mxCell id="rEkYpKIjq7FoAjk0Uec6-119" value="" style="endArrow=none;html=1;rounded=0;entryX=1;entryY=1;entryDx=0;entryDy=0;" parent="1" edge="1">
          <mxGeometry width="50" height="50" relative="1" as="geometry">
            <mxPoint x="420" y="360" as="sourcePoint" />
            <mxPoint x="420" y="340" as="targetPoint" />
          </mxGeometry>
        </mxCell>
        <mxCell id="rEkYpKIjq7FoAjk0Uec6-120" value="" style="endArrow=none;html=1;rounded=0;exitX=0;exitY=-0.12;exitDx=0;exitDy=0;exitPerimeter=0;" parent="1" edge="1">
          <mxGeometry width="50" height="50" relative="1" as="geometry">
            <mxPoint x="400" y="360" as="sourcePoint" />
            <mxPoint x="400" y="340" as="targetPoint" />
          </mxGeometry>
        </mxCell>
        <mxCell id="rEkYpKIjq7FoAjk0Uec6-121" value="" style="endArrow=none;html=1;rounded=0;" parent="1" edge="1">
          <mxGeometry width="50" height="50" relative="1" as="geometry">
            <mxPoint x="400" y="359.6" as="sourcePoint" />
            <mxPoint x="420" y="359.6" as="targetPoint" />
          </mxGeometry>
        </mxCell>
        <mxCell id="rEkYpKIjq7FoAjk0Uec6-122" value="" style="endArrow=none;html=1;rounded=0;entryX=1;entryY=1;entryDx=0;entryDy=0;" parent="1" edge="1">
          <mxGeometry width="50" height="50" relative="1" as="geometry">
            <mxPoint x="479.6" y="360" as="sourcePoint" />
            <mxPoint x="479.6" y="340" as="targetPoint" />
          </mxGeometry>
        </mxCell>
        <mxCell id="rEkYpKIjq7FoAjk0Uec6-123" value="" style="endArrow=none;html=1;rounded=0;" parent="1" edge="1">
          <mxGeometry width="50" height="50" relative="1" as="geometry">
            <mxPoint x="460" y="359.6" as="sourcePoint" />
            <mxPoint x="480" y="359.6" as="targetPoint" />
          </mxGeometry>
        </mxCell>
        <mxCell id="rEkYpKIjq7FoAjk0Uec6-124" value="" style="endArrow=none;html=1;rounded=0;exitX=0;exitY=-0.12;exitDx=0;exitDy=0;exitPerimeter=0;" parent="1" edge="1">
          <mxGeometry width="50" height="50" relative="1" as="geometry">
            <mxPoint x="460" y="360" as="sourcePoint" />
            <mxPoint x="460" y="340" as="targetPoint" />
          </mxGeometry>
        </mxCell>
        <mxCell id="rEkYpKIjq7FoAjk0Uec6-125" value="" style="endArrow=none;html=1;rounded=0;" parent="1" edge="1">
          <mxGeometry width="50" height="50" relative="1" as="geometry">
            <mxPoint x="460" y="340" as="sourcePoint" />
            <mxPoint x="480" y="340" as="targetPoint" />
          </mxGeometry>
        </mxCell>
        <mxCell id="rEkYpKIjq7FoAjk0Uec6-126" value="" style="endArrow=none;html=1;rounded=0;" parent="1" edge="1">
          <mxGeometry width="50" height="50" relative="1" as="geometry">
            <mxPoint x="520" y="339.6" as="sourcePoint" />
            <mxPoint x="540" y="339.6" as="targetPoint" />
          </mxGeometry>
        </mxCell>
        <mxCell id="rEkYpKIjq7FoAjk0Uec6-127" value="" style="endArrow=none;html=1;rounded=0;exitX=0;exitY=-0.12;exitDx=0;exitDy=0;exitPerimeter=0;" parent="1" edge="1">
          <mxGeometry width="50" height="50" relative="1" as="geometry">
            <mxPoint x="520" y="340" as="sourcePoint" />
            <mxPoint x="520" y="320" as="targetPoint" />
          </mxGeometry>
        </mxCell>
        <mxCell id="rEkYpKIjq7FoAjk0Uec6-128" value="" style="endArrow=none;html=1;rounded=0;" parent="1" edge="1">
          <mxGeometry width="50" height="50" relative="1" as="geometry">
            <mxPoint x="520" y="320" as="sourcePoint" />
            <mxPoint x="540" y="320" as="targetPoint" />
          </mxGeometry>
        </mxCell>
        <mxCell id="rEkYpKIjq7FoAjk0Uec6-129" value="" style="endArrow=none;html=1;rounded=0;" parent="1" edge="1">
          <mxGeometry width="50" height="50" relative="1" as="geometry">
            <mxPoint x="520" y="199.60000000000002" as="sourcePoint" />
            <mxPoint x="540" y="199.60000000000002" as="targetPoint" />
          </mxGeometry>
        </mxCell>
        <mxCell id="rEkYpKIjq7FoAjk0Uec6-130" value="" style="endArrow=none;html=1;rounded=0;exitX=0;exitY=-0.12;exitDx=0;exitDy=0;exitPerimeter=0;" parent="1" edge="1">
          <mxGeometry width="50" height="50" relative="1" as="geometry">
            <mxPoint x="520" y="200" as="sourcePoint" />
            <mxPoint x="520" y="180" as="targetPoint" />
          </mxGeometry>
        </mxCell>
        <mxCell id="rEkYpKIjq7FoAjk0Uec6-131" value="" style="endArrow=none;html=1;rounded=0;" parent="1" edge="1">
          <mxGeometry width="50" height="50" relative="1" as="geometry">
            <mxPoint x="520" y="180" as="sourcePoint" />
            <mxPoint x="540" y="180" as="targetPoint" />
          </mxGeometry>
        </mxCell>
        <mxCell id="rEkYpKIjq7FoAjk0Uec6-132" value="" style="endArrow=none;html=1;rounded=0;exitX=0;exitY=-0.12;exitDx=0;exitDy=0;exitPerimeter=0;" parent="1" edge="1">
          <mxGeometry width="50" height="50" relative="1" as="geometry">
            <mxPoint x="320" y="180" as="sourcePoint" />
            <mxPoint x="320" y="160" as="targetPoint" />
          </mxGeometry>
        </mxCell>
        <mxCell id="rEkYpKIjq7FoAjk0Uec6-134" value="" style="endArrow=none;html=1;rounded=0;exitX=0;exitY=-0.12;exitDx=0;exitDy=0;exitPerimeter=0;" parent="1" edge="1">
          <mxGeometry width="50" height="50" relative="1" as="geometry">
            <mxPoint x="340" y="180" as="sourcePoint" />
            <mxPoint x="340" y="160" as="targetPoint" />
          </mxGeometry>
        </mxCell>
        <mxCell id="rEkYpKIjq7FoAjk0Uec6-135" value="" style="endArrow=none;html=1;rounded=0;exitX=0;exitY=-0.12;exitDx=0;exitDy=0;exitPerimeter=0;" parent="1" edge="1">
          <mxGeometry width="50" height="50" relative="1" as="geometry">
            <mxPoint x="260" y="220" as="sourcePoint" />
            <mxPoint x="260" y="200" as="targetPoint" />
          </mxGeometry>
        </mxCell>
        <mxCell id="rEkYpKIjq7FoAjk0Uec6-137" value="" style="endArrow=none;html=1;rounded=0;" parent="1" edge="1">
          <mxGeometry width="50" height="50" relative="1" as="geometry">
            <mxPoint x="260" y="200" as="sourcePoint" />
            <mxPoint x="280" y="200" as="targetPoint" />
          </mxGeometry>
        </mxCell>
        <mxCell id="rEkYpKIjq7FoAjk0Uec6-138" value="" style="endArrow=none;html=1;rounded=0;exitX=1;exitY=0;exitDx=0;exitDy=0;entryX=0;entryY=0;entryDx=0;entryDy=0;" parent="1" source="rEkYpKIjq7FoAjk0Uec6-82" target="rEkYpKIjq7FoAjk0Uec6-93" edge="1">
          <mxGeometry width="50" height="50" relative="1" as="geometry">
            <mxPoint x="410" y="315" as="sourcePoint" />
            <mxPoint x="460" y="265" as="targetPoint" />
          </mxGeometry>
        </mxCell>
        <mxCell id="rEkYpKIjq7FoAjk0Uec6-139" value="" style="endArrow=none;html=1;rounded=0;" parent="1" edge="1">
          <mxGeometry width="50" height="50" relative="1" as="geometry">
            <mxPoint x="360" y="220" as="sourcePoint" />
            <mxPoint x="400" y="219.6" as="targetPoint" />
          </mxGeometry>
        </mxCell>
        <mxCell id="rEkYpKIjq7FoAjk0Uec6-140" value="" style="endArrow=none;html=1;rounded=0;" parent="1" edge="1">
          <mxGeometry width="50" height="50" relative="1" as="geometry">
            <mxPoint x="360" y="200.4" as="sourcePoint" />
            <mxPoint x="400" y="200" as="targetPoint" />
          </mxGeometry>
        </mxCell>
        <mxCell id="rEkYpKIjq7FoAjk0Uec6-141" value="" style="endArrow=none;html=1;rounded=0;exitX=0;exitY=-0.12;exitDx=0;exitDy=0;exitPerimeter=0;" parent="1" edge="1">
          <mxGeometry width="50" height="50" relative="1" as="geometry">
            <mxPoint x="400" y="220" as="sourcePoint" />
            <mxPoint x="400" y="200" as="targetPoint" />
          </mxGeometry>
        </mxCell>
        <mxCell id="rEkYpKIjq7FoAjk0Uec6-142" value="" style="endArrow=none;html=1;rounded=0;exitX=1;exitY=0;exitDx=0;exitDy=0;" parent="1" source="rEkYpKIjq7FoAjk0Uec6-81" edge="1">
          <mxGeometry width="50" height="50" relative="1" as="geometry">
            <mxPoint x="395" y="320" as="sourcePoint" />
            <mxPoint x="340" y="240" as="targetPoint" />
          </mxGeometry>
        </mxCell>
        <mxCell id="rEkYpKIjq7FoAjk0Uec6-143" value="" style="endArrow=none;html=1;rounded=0;" parent="1" edge="1">
          <mxGeometry width="50" height="50" relative="1" as="geometry">
            <mxPoint x="259.6" y="280" as="sourcePoint" />
            <mxPoint x="279.6" y="280" as="targetPoint" />
          </mxGeometry>
        </mxCell>
        <mxCell id="rEkYpKIjq7FoAjk0Uec6-144" value="" style="endArrow=none;html=1;rounded=0;exitX=1;exitY=0;exitDx=0;exitDy=0;" parent="1" source="rEkYpKIjq7FoAjk0Uec6-79" edge="1">
          <mxGeometry width="50" height="50" relative="1" as="geometry">
            <mxPoint x="285.4" y="325" as="sourcePoint" />
            <mxPoint x="280" y="280" as="targetPoint" />
          </mxGeometry>
        </mxCell>
        <mxCell id="rEkYpKIjq7FoAjk0Uec6-145" value="" style="endArrow=none;html=1;rounded=0;" parent="1" edge="1">
          <mxGeometry width="50" height="50" relative="1" as="geometry">
            <mxPoint x="239.60000000000002" y="260" as="sourcePoint" />
            <mxPoint x="259.6" y="260" as="targetPoint" />
          </mxGeometry>
        </mxCell>
        <mxCell id="rEkYpKIjq7FoAjk0Uec6-146" value="" style="endArrow=none;html=1;rounded=0;" parent="1" edge="1">
          <mxGeometry width="50" height="50" relative="1" as="geometry">
            <mxPoint x="259.6" y="280" as="sourcePoint" />
            <mxPoint x="259.6" y="260" as="targetPoint" />
          </mxGeometry>
        </mxCell>
        <mxCell id="rEkYpKIjq7FoAjk0Uec6-147" value="" style="endArrow=none;html=1;rounded=0;exitX=1;exitY=0;exitDx=0;exitDy=0;" parent="1" edge="1">
          <mxGeometry width="50" height="50" relative="1" as="geometry">
            <mxPoint x="280" y="380" as="sourcePoint" />
            <mxPoint x="280" y="340" as="targetPoint" />
          </mxGeometry>
        </mxCell>
        <mxCell id="rEkYpKIjq7FoAjk0Uec6-148" value="" style="endArrow=none;html=1;rounded=0;" parent="1" edge="1">
          <mxGeometry width="50" height="50" relative="1" as="geometry">
            <mxPoint x="300" y="380" as="sourcePoint" />
            <mxPoint x="300" y="360" as="targetPoint" />
          </mxGeometry>
        </mxCell>
        <mxCell id="rEkYpKIjq7FoAjk0Uec6-150" value="" style="endArrow=none;html=1;rounded=0;" parent="1" edge="1">
          <mxGeometry width="50" height="50" relative="1" as="geometry">
            <mxPoint x="280" y="379.6" as="sourcePoint" />
            <mxPoint x="300" y="379.6" as="targetPoint" />
          </mxGeometry>
        </mxCell>
        <mxCell id="rEkYpKIjq7FoAjk0Uec6-151" value="" style="endArrow=none;html=1;rounded=0;entryX=0;entryY=0;entryDx=0;entryDy=0;" parent="1" target="rEkYpKIjq7FoAjk0Uec6-110" edge="1">
          <mxGeometry width="50" height="50" relative="1" as="geometry">
            <mxPoint x="300" y="360" as="sourcePoint" />
            <mxPoint x="320" y="360" as="targetPoint" />
          </mxGeometry>
        </mxCell>
        <mxCell id="rEkYpKIjq7FoAjk0Uec6-152" value="" style="endArrow=none;html=1;rounded=0;" parent="1" edge="1">
          <mxGeometry width="50" height="50" relative="1" as="geometry">
            <mxPoint x="300" y="340" as="sourcePoint" />
            <mxPoint x="360" y="340" as="targetPoint" />
          </mxGeometry>
        </mxCell>
        <mxCell id="rEkYpKIjq7FoAjk0Uec6-153" value="" style="endArrow=none;html=1;rounded=0;entryX=1;entryY=1;entryDx=0;entryDy=0;" parent="1" edge="1">
          <mxGeometry width="50" height="50" relative="1" as="geometry">
            <mxPoint x="360" y="360" as="sourcePoint" />
            <mxPoint x="360" y="340" as="targetPoint" />
          </mxGeometry>
        </mxCell>
        <mxCell id="rEkYpKIjq7FoAjk0Uec6-154" value="" style="endArrow=none;html=1;rounded=0;" parent="1" edge="1">
          <mxGeometry width="50" height="50" relative="1" as="geometry">
            <mxPoint x="320" y="380" as="sourcePoint" />
            <mxPoint x="340" y="380" as="targetPoint" />
          </mxGeometry>
        </mxCell>
        <mxCell id="rEkYpKIjq7FoAjk0Uec6-155" value="" style="endArrow=none;html=1;rounded=0;entryX=1;entryY=1;entryDx=0;entryDy=0;" parent="1" edge="1">
          <mxGeometry width="50" height="50" relative="1" as="geometry">
            <mxPoint x="400" y="260" as="sourcePoint" />
            <mxPoint x="400" y="240" as="targetPoint" />
          </mxGeometry>
        </mxCell>
        <mxCell id="rEkYpKIjq7FoAjk0Uec6-156" value="" style="endArrow=none;html=1;rounded=0;" parent="1" edge="1">
          <mxGeometry width="50" height="50" relative="1" as="geometry">
            <mxPoint x="400" y="259.6" as="sourcePoint" />
            <mxPoint x="460" y="259.6" as="targetPoint" />
          </mxGeometry>
        </mxCell>
        <mxCell id="rEkYpKIjq7FoAjk0Uec6-550" value="" style="group" parent="1" vertex="1" connectable="0">
          <mxGeometry x="240" y="480" width="300" height="300" as="geometry" />
        </mxCell>
        <mxCell id="rEkYpKIjq7FoAjk0Uec6-157" value="1" style="text;html=1;align=center;verticalAlign=middle;whiteSpace=wrap;rounded=0;fontFamily=&quot;Latin Mono Regular 12&quot;;fontStyle=1;fontColor=#0000FF;" parent="rEkYpKIjq7FoAjk0Uec6-550" vertex="1">
          <mxGeometry x="140" y="120" width="20" height="20" as="geometry" />
        </mxCell>
        <mxCell id="rEkYpKIjq7FoAjk0Uec6-221" value="1" style="text;html=1;align=center;verticalAlign=middle;whiteSpace=wrap;rounded=0;fontFamily=&quot;Latin Mono Regular 12&quot;;fontStyle=1;fontColor=#0000FF;" parent="rEkYpKIjq7FoAjk0Uec6-550" vertex="1">
          <mxGeometry x="140" y="80" width="20" height="20" as="geometry" />
        </mxCell>
        <mxCell id="rEkYpKIjq7FoAjk0Uec6-222" value="1" style="text;html=1;align=center;verticalAlign=middle;whiteSpace=wrap;rounded=0;fontFamily=&quot;Latin Mono Regular 12&quot;;fontStyle=1;fontColor=#0000FF;" parent="rEkYpKIjq7FoAjk0Uec6-550" vertex="1">
          <mxGeometry x="160" y="100" width="20" height="20" as="geometry" />
        </mxCell>
        <mxCell id="rEkYpKIjq7FoAjk0Uec6-225" value="2" style="text;html=1;align=center;verticalAlign=middle;whiteSpace=wrap;rounded=0;fontFamily=&quot;Latin Mono Regular 12&quot;;fontStyle=1;fontColor=#0000FF;" parent="rEkYpKIjq7FoAjk0Uec6-550" vertex="1">
          <mxGeometry x="120" y="80" width="20" height="20" as="geometry" />
        </mxCell>
        <mxCell id="rEkYpKIjq7FoAjk0Uec6-226" value="3" style="text;html=1;align=center;verticalAlign=middle;whiteSpace=wrap;rounded=0;fontFamily=&quot;Latin Mono Regular 12&quot;;fontStyle=1;fontColor=#0000FF;" parent="rEkYpKIjq7FoAjk0Uec6-550" vertex="1">
          <mxGeometry x="100" y="80" width="20" height="20" as="geometry" />
        </mxCell>
        <mxCell id="rEkYpKIjq7FoAjk0Uec6-227" value="4" style="text;html=1;align=center;verticalAlign=middle;whiteSpace=wrap;rounded=0;fontFamily=&quot;Latin Mono Regular 12&quot;;fontStyle=1;fontColor=#0000FF;" parent="rEkYpKIjq7FoAjk0Uec6-550" vertex="1">
          <mxGeometry x="100" y="100" width="20" height="20" as="geometry" />
        </mxCell>
        <mxCell id="rEkYpKIjq7FoAjk0Uec6-228" value="5" style="text;html=1;align=center;verticalAlign=middle;whiteSpace=wrap;rounded=0;fontFamily=&quot;Latin Mono Regular 12&quot;;fontStyle=1;fontColor=#0000FF;" parent="rEkYpKIjq7FoAjk0Uec6-550" vertex="1">
          <mxGeometry x="100" y="120" width="20" height="20" as="geometry" />
        </mxCell>
        <mxCell id="rEkYpKIjq7FoAjk0Uec6-229" value="6" style="text;html=1;align=center;verticalAlign=middle;whiteSpace=wrap;rounded=0;fontFamily=&quot;Latin Mono Regular 12&quot;;fontStyle=1;fontColor=#0000FF;" parent="rEkYpKIjq7FoAjk0Uec6-550" vertex="1">
          <mxGeometry x="100" y="140" width="20" height="20" as="geometry" />
        </mxCell>
        <mxCell id="rEkYpKIjq7FoAjk0Uec6-230" value="7" style="text;html=1;align=center;verticalAlign=middle;whiteSpace=wrap;rounded=0;fontFamily=&quot;Latin Mono Regular 12&quot;;fontStyle=1;fontColor=#0000FF;" parent="rEkYpKIjq7FoAjk0Uec6-550" vertex="1">
          <mxGeometry x="100" y="160" width="20" height="20" as="geometry" />
        </mxCell>
        <mxCell id="rEkYpKIjq7FoAjk0Uec6-231" value="8" style="text;html=1;align=center;verticalAlign=middle;whiteSpace=wrap;rounded=0;fontFamily=&quot;Latin Mono Regular 12&quot;;fontStyle=1;fontColor=#0000FF;" parent="rEkYpKIjq7FoAjk0Uec6-550" vertex="1">
          <mxGeometry x="80" y="160" width="20" height="20" as="geometry" />
        </mxCell>
        <mxCell id="rEkYpKIjq7FoAjk0Uec6-232" value="9" style="text;html=1;align=center;verticalAlign=middle;whiteSpace=wrap;rounded=0;fontFamily=&quot;Latin Mono Regular 12&quot;;fontStyle=1;fontColor=#0000FF;" parent="rEkYpKIjq7FoAjk0Uec6-550" vertex="1">
          <mxGeometry x="60" y="160" width="20" height="20" as="geometry" />
        </mxCell>
        <mxCell id="rEkYpKIjq7FoAjk0Uec6-233" value="10" style="text;html=1;align=center;verticalAlign=middle;whiteSpace=wrap;rounded=0;fontFamily=&quot;Latin Mono Regular 12&quot;;fontStyle=1;fontColor=#0000FF;" parent="rEkYpKIjq7FoAjk0Uec6-550" vertex="1">
          <mxGeometry x="60" y="140" width="20" height="20" as="geometry" />
        </mxCell>
        <mxCell id="rEkYpKIjq7FoAjk0Uec6-234" value="11" style="text;html=1;align=center;verticalAlign=middle;whiteSpace=wrap;rounded=0;fontFamily=&quot;Latin Mono Regular 12&quot;;fontStyle=1;fontColor=#0000FF;" parent="rEkYpKIjq7FoAjk0Uec6-550" vertex="1">
          <mxGeometry x="40" y="140" width="20" height="20" as="geometry" />
        </mxCell>
        <mxCell id="rEkYpKIjq7FoAjk0Uec6-235" value="12" style="text;html=1;align=center;verticalAlign=middle;whiteSpace=wrap;rounded=0;fontFamily=&quot;Latin Mono Regular 12&quot;;fontStyle=1;fontColor=#0000FF;" parent="rEkYpKIjq7FoAjk0Uec6-550" vertex="1">
          <mxGeometry x="40" y="120" width="20" height="20" as="geometry" />
        </mxCell>
        <mxCell id="rEkYpKIjq7FoAjk0Uec6-236" value="13" style="text;html=1;align=center;verticalAlign=middle;whiteSpace=wrap;rounded=0;fontFamily=&quot;Latin Mono Regular 12&quot;;fontStyle=1;fontColor=#0000FF;" parent="rEkYpKIjq7FoAjk0Uec6-550" vertex="1">
          <mxGeometry x="40" y="100" width="20" height="20" as="geometry" />
        </mxCell>
        <mxCell id="rEkYpKIjq7FoAjk0Uec6-237" value="14" style="text;html=1;align=center;verticalAlign=middle;whiteSpace=wrap;rounded=0;fontFamily=&quot;Latin Mono Regular 12&quot;;fontStyle=1;fontColor=#0000FF;" parent="rEkYpKIjq7FoAjk0Uec6-550" vertex="1">
          <mxGeometry x="40" y="80" width="20" height="20" as="geometry" />
        </mxCell>
        <mxCell id="rEkYpKIjq7FoAjk0Uec6-238" value="15" style="text;html=1;align=center;verticalAlign=middle;whiteSpace=wrap;rounded=0;fontFamily=&quot;Latin Mono Regular 12&quot;;fontStyle=1;fontColor=#0000FF;" parent="rEkYpKIjq7FoAjk0Uec6-550" vertex="1">
          <mxGeometry x="40" y="60" width="20" height="20" as="geometry" />
        </mxCell>
        <mxCell id="rEkYpKIjq7FoAjk0Uec6-239" value="16" style="text;html=1;align=center;verticalAlign=middle;whiteSpace=wrap;rounded=0;fontFamily=&quot;Latin Mono Regular 12&quot;;fontStyle=1;fontColor=#0000FF;" parent="rEkYpKIjq7FoAjk0Uec6-550" vertex="1">
          <mxGeometry x="40" y="40" width="20" height="20" as="geometry" />
        </mxCell>
        <mxCell id="rEkYpKIjq7FoAjk0Uec6-240" value="17" style="text;html=1;align=center;verticalAlign=middle;whiteSpace=wrap;rounded=0;fontFamily=&quot;Latin Mono Regular 12&quot;;fontStyle=1;fontColor=#0000FF;" parent="rEkYpKIjq7FoAjk0Uec6-550" vertex="1">
          <mxGeometry x="60" y="40" width="20" height="20" as="geometry" />
        </mxCell>
        <mxCell id="rEkYpKIjq7FoAjk0Uec6-241" value="18" style="text;html=1;align=center;verticalAlign=middle;whiteSpace=wrap;rounded=0;fontFamily=&quot;Latin Mono Regular 12&quot;;fontStyle=1;fontColor=#0000FF;" parent="rEkYpKIjq7FoAjk0Uec6-550" vertex="1">
          <mxGeometry x="80" y="40" width="20" height="20" as="geometry" />
        </mxCell>
        <mxCell id="rEkYpKIjq7FoAjk0Uec6-242" value="19" style="text;html=1;align=center;verticalAlign=middle;whiteSpace=wrap;rounded=0;fontFamily=&quot;Latin Mono Regular 12&quot;;fontStyle=1;fontColor=#0000FF;" parent="rEkYpKIjq7FoAjk0Uec6-550" vertex="1">
          <mxGeometry x="100" y="40" width="20" height="20" as="geometry" />
        </mxCell>
        <mxCell id="rEkYpKIjq7FoAjk0Uec6-243" value="20" style="text;html=1;align=center;verticalAlign=middle;whiteSpace=wrap;rounded=0;fontFamily=&quot;Latin Mono Regular 12&quot;;fontStyle=1;fontColor=#0000FF;" parent="rEkYpKIjq7FoAjk0Uec6-550" vertex="1">
          <mxGeometry x="100" y="20" width="20" height="20" as="geometry" />
        </mxCell>
        <mxCell id="rEkYpKIjq7FoAjk0Uec6-244" value="21" style="text;html=1;align=center;verticalAlign=middle;whiteSpace=wrap;rounded=0;fontFamily=&quot;Latin Mono Regular 12&quot;;fontStyle=1;fontColor=#0000FF;" parent="rEkYpKIjq7FoAjk0Uec6-550" vertex="1">
          <mxGeometry x="120" y="20" width="20" height="20" as="geometry" />
        </mxCell>
        <mxCell id="rEkYpKIjq7FoAjk0Uec6-245" value="22" style="text;html=1;align=center;verticalAlign=middle;whiteSpace=wrap;rounded=0;fontFamily=&quot;Latin Mono Regular 12&quot;;fontStyle=1;fontColor=#0000FF;" parent="rEkYpKIjq7FoAjk0Uec6-550" vertex="1">
          <mxGeometry x="140" y="20" width="20" height="20" as="geometry" />
        </mxCell>
        <mxCell id="rEkYpKIjq7FoAjk0Uec6-246" value="23" style="text;html=1;align=center;verticalAlign=middle;whiteSpace=wrap;rounded=0;fontFamily=&quot;Latin Mono Regular 12&quot;;fontStyle=1;fontColor=#0000FF;" parent="rEkYpKIjq7FoAjk0Uec6-550" vertex="1">
          <mxGeometry x="160" y="20" width="20" height="20" as="geometry" />
        </mxCell>
        <mxCell id="rEkYpKIjq7FoAjk0Uec6-247" value="24" style="text;html=1;align=center;verticalAlign=middle;whiteSpace=wrap;rounded=0;fontFamily=&quot;Latin Mono Regular 12&quot;;fontStyle=1;fontColor=#0000FF;" parent="rEkYpKIjq7FoAjk0Uec6-550" vertex="1">
          <mxGeometry x="160" y="40" width="20" height="20" as="geometry" />
        </mxCell>
        <mxCell id="rEkYpKIjq7FoAjk0Uec6-248" value="25" style="text;html=1;align=center;verticalAlign=middle;whiteSpace=wrap;rounded=0;fontFamily=&quot;Latin Mono Regular 12&quot;;fontStyle=1;fontColor=#0000FF;" parent="rEkYpKIjq7FoAjk0Uec6-550" vertex="1">
          <mxGeometry x="180" y="40" width="20" height="20" as="geometry" />
        </mxCell>
        <mxCell id="rEkYpKIjq7FoAjk0Uec6-249" value="26" style="text;html=1;align=center;verticalAlign=middle;whiteSpace=wrap;rounded=0;fontFamily=&quot;Latin Mono Regular 12&quot;;fontStyle=1;fontColor=#0000FF;" parent="rEkYpKIjq7FoAjk0Uec6-550" vertex="1">
          <mxGeometry x="180" y="60" width="20" height="20" as="geometry" />
        </mxCell>
        <mxCell id="rEkYpKIjq7FoAjk0Uec6-250" value="27" style="text;html=1;align=center;verticalAlign=middle;whiteSpace=wrap;rounded=0;fontFamily=&quot;Latin Mono Regular 12&quot;;fontStyle=1;fontColor=#0000FF;" parent="rEkYpKIjq7FoAjk0Uec6-550" vertex="1">
          <mxGeometry x="200" y="60" width="20" height="20" as="geometry" />
        </mxCell>
        <mxCell id="rEkYpKIjq7FoAjk0Uec6-251" value="28" style="text;html=1;align=center;verticalAlign=middle;whiteSpace=wrap;rounded=0;fontFamily=&quot;Latin Mono Regular 12&quot;;fontStyle=1;fontColor=#0000FF;" parent="rEkYpKIjq7FoAjk0Uec6-550" vertex="1">
          <mxGeometry x="220" y="60" width="20" height="20" as="geometry" />
        </mxCell>
        <mxCell id="rEkYpKIjq7FoAjk0Uec6-252" value="29" style="text;html=1;align=center;verticalAlign=middle;whiteSpace=wrap;rounded=0;fontFamily=&quot;Latin Mono Regular 12&quot;;fontStyle=1;fontColor=#0000FF;" parent="rEkYpKIjq7FoAjk0Uec6-550" vertex="1">
          <mxGeometry x="240" y="60" width="20" height="20" as="geometry" />
        </mxCell>
        <mxCell id="rEkYpKIjq7FoAjk0Uec6-253" value="30" style="text;html=1;align=center;verticalAlign=middle;whiteSpace=wrap;rounded=0;fontFamily=&quot;Latin Mono Regular 12&quot;;fontStyle=1;fontColor=#0000FF;" parent="rEkYpKIjq7FoAjk0Uec6-550" vertex="1">
          <mxGeometry x="240" y="40" width="20" height="20" as="geometry" />
        </mxCell>
        <mxCell id="rEkYpKIjq7FoAjk0Uec6-254" value="31" style="text;html=1;align=center;verticalAlign=middle;whiteSpace=wrap;rounded=0;fontFamily=&quot;Latin Mono Regular 12&quot;;fontStyle=1;fontColor=#0000FF;" parent="rEkYpKIjq7FoAjk0Uec6-550" vertex="1">
          <mxGeometry x="260" y="40" width="20" height="20" as="geometry" />
        </mxCell>
        <mxCell id="rEkYpKIjq7FoAjk0Uec6-255" value="32" style="text;html=1;align=center;verticalAlign=middle;whiteSpace=wrap;rounded=0;fontFamily=&quot;Latin Mono Regular 12&quot;;fontStyle=1;fontColor=#0000FF;" parent="rEkYpKIjq7FoAjk0Uec6-550" vertex="1">
          <mxGeometry x="280" y="40" width="20" height="20" as="geometry" />
        </mxCell>
        <mxCell id="rEkYpKIjq7FoAjk0Uec6-256" value="2" style="text;html=1;align=center;verticalAlign=middle;whiteSpace=wrap;rounded=0;fontFamily=&quot;Latin Mono Regular 12&quot;;fontStyle=1;fontColor=#0000FF;" parent="rEkYpKIjq7FoAjk0Uec6-550" vertex="1">
          <mxGeometry x="140" y="140" width="20" height="20" as="geometry" />
        </mxCell>
        <mxCell id="rEkYpKIjq7FoAjk0Uec6-257" value="3" style="text;html=1;align=center;verticalAlign=middle;whiteSpace=wrap;rounded=0;fontFamily=&quot;Latin Mono Regular 12&quot;;fontStyle=1;fontColor=#0000FF;" parent="rEkYpKIjq7FoAjk0Uec6-550" vertex="1">
          <mxGeometry x="160" y="140" width="20" height="20" as="geometry" />
        </mxCell>
        <mxCell id="rEkYpKIjq7FoAjk0Uec6-258" value="4" style="text;html=1;align=center;verticalAlign=middle;whiteSpace=wrap;rounded=0;fontFamily=&quot;Latin Mono Regular 12&quot;;fontStyle=1;fontColor=#0000FF;" parent="rEkYpKIjq7FoAjk0Uec6-550" vertex="1">
          <mxGeometry x="160" y="160" width="20" height="20" as="geometry" />
        </mxCell>
        <mxCell id="rEkYpKIjq7FoAjk0Uec6-259" value="5" style="text;html=1;align=center;verticalAlign=middle;whiteSpace=wrap;rounded=0;fontFamily=&quot;Latin Mono Regular 12&quot;;fontStyle=1;fontColor=#0000FF;" parent="rEkYpKIjq7FoAjk0Uec6-550" vertex="1">
          <mxGeometry x="140" y="160" width="20" height="20" as="geometry" />
        </mxCell>
        <mxCell id="rEkYpKIjq7FoAjk0Uec6-260" value="6" style="text;html=1;align=center;verticalAlign=middle;whiteSpace=wrap;rounded=0;fontFamily=&quot;Latin Mono Regular 12&quot;;fontStyle=1;fontColor=#0000FF;" parent="rEkYpKIjq7FoAjk0Uec6-550" vertex="1">
          <mxGeometry x="140" y="180" width="20" height="20" as="geometry" />
        </mxCell>
        <mxCell id="rEkYpKIjq7FoAjk0Uec6-261" value="7" style="text;html=1;align=center;verticalAlign=middle;whiteSpace=wrap;rounded=0;fontFamily=&quot;Latin Mono Regular 12&quot;;fontStyle=1;fontColor=#0000FF;" parent="rEkYpKIjq7FoAjk0Uec6-550" vertex="1">
          <mxGeometry x="120" y="180" width="20" height="20" as="geometry" />
        </mxCell>
        <mxCell id="rEkYpKIjq7FoAjk0Uec6-262" value="8" style="text;html=1;align=center;verticalAlign=middle;whiteSpace=wrap;rounded=0;fontFamily=&quot;Latin Mono Regular 12&quot;;fontStyle=1;fontColor=#0000FF;" parent="rEkYpKIjq7FoAjk0Uec6-550" vertex="1">
          <mxGeometry x="120" y="200" width="20" height="20" as="geometry" />
        </mxCell>
        <mxCell id="rEkYpKIjq7FoAjk0Uec6-263" value="9" style="text;html=1;align=center;verticalAlign=middle;whiteSpace=wrap;rounded=0;fontFamily=&quot;Latin Mono Regular 12&quot;;fontStyle=1;fontColor=#0000FF;" parent="rEkYpKIjq7FoAjk0Uec6-550" vertex="1">
          <mxGeometry x="140" y="200" width="20" height="20" as="geometry" />
        </mxCell>
        <mxCell id="rEkYpKIjq7FoAjk0Uec6-264" value="10" style="text;html=1;align=center;verticalAlign=middle;whiteSpace=wrap;rounded=0;fontFamily=&quot;Latin Mono Regular 12&quot;;fontStyle=1;fontColor=#0000FF;" parent="rEkYpKIjq7FoAjk0Uec6-550" vertex="1">
          <mxGeometry x="140" y="220" width="20" height="20" as="geometry" />
        </mxCell>
        <mxCell id="rEkYpKIjq7FoAjk0Uec6-265" value="11" style="text;html=1;align=center;verticalAlign=middle;whiteSpace=wrap;rounded=0;fontFamily=&quot;Latin Mono Regular 12&quot;;fontStyle=1;fontColor=#0000FF;" parent="rEkYpKIjq7FoAjk0Uec6-550" vertex="1">
          <mxGeometry x="140" y="240" width="20" height="20" as="geometry" />
        </mxCell>
        <mxCell id="rEkYpKIjq7FoAjk0Uec6-266" value="12" style="text;html=1;align=center;verticalAlign=middle;whiteSpace=wrap;rounded=0;fontFamily=&quot;Latin Mono Regular 12&quot;;fontStyle=1;fontColor=#0000FF;" parent="rEkYpKIjq7FoAjk0Uec6-550" vertex="1">
          <mxGeometry x="120" y="240" width="20" height="20" as="geometry" />
        </mxCell>
        <mxCell id="rEkYpKIjq7FoAjk0Uec6-267" value="13" style="text;html=1;align=center;verticalAlign=middle;whiteSpace=wrap;rounded=0;fontFamily=&quot;Latin Mono Regular 12&quot;;fontStyle=1;fontColor=#0000FF;" parent="rEkYpKIjq7FoAjk0Uec6-550" vertex="1">
          <mxGeometry x="120" y="260" width="20" height="20" as="geometry" />
        </mxCell>
        <mxCell id="rEkYpKIjq7FoAjk0Uec6-268" value="14" style="text;html=1;align=center;verticalAlign=middle;whiteSpace=wrap;rounded=0;fontFamily=&quot;Latin Mono Regular 12&quot;;fontStyle=1;fontColor=#0000FF;" parent="rEkYpKIjq7FoAjk0Uec6-550" vertex="1">
          <mxGeometry x="100" y="260" width="20" height="20" as="geometry" />
        </mxCell>
        <mxCell id="rEkYpKIjq7FoAjk0Uec6-269" value="15" style="text;html=1;align=center;verticalAlign=middle;whiteSpace=wrap;rounded=0;fontFamily=&quot;Latin Mono Regular 12&quot;;fontStyle=1;fontColor=#0000FF;" parent="rEkYpKIjq7FoAjk0Uec6-550" vertex="1">
          <mxGeometry x="80" y="260" width="20" height="20" as="geometry" />
        </mxCell>
        <mxCell id="rEkYpKIjq7FoAjk0Uec6-270" value="16" style="text;html=1;align=center;verticalAlign=middle;whiteSpace=wrap;rounded=0;fontFamily=&quot;Latin Mono Regular 12&quot;;fontStyle=1;fontColor=#0000FF;" parent="rEkYpKIjq7FoAjk0Uec6-550" vertex="1">
          <mxGeometry x="80" y="240" width="20" height="20" as="geometry" />
        </mxCell>
        <mxCell id="rEkYpKIjq7FoAjk0Uec6-271" value="17" style="text;html=1;align=center;verticalAlign=middle;whiteSpace=wrap;rounded=0;fontFamily=&quot;Latin Mono Regular 12&quot;;fontStyle=1;fontColor=#0000FF;" parent="rEkYpKIjq7FoAjk0Uec6-550" vertex="1">
          <mxGeometry x="80" y="220" width="20" height="20" as="geometry" />
        </mxCell>
        <mxCell id="rEkYpKIjq7FoAjk0Uec6-272" value="18" style="text;html=1;align=center;verticalAlign=middle;whiteSpace=wrap;rounded=0;fontFamily=&quot;Latin Mono Regular 12&quot;;fontStyle=1;fontColor=#0000FF;" parent="rEkYpKIjq7FoAjk0Uec6-550" vertex="1">
          <mxGeometry x="60" y="220" width="20" height="20" as="geometry" />
        </mxCell>
        <mxCell id="rEkYpKIjq7FoAjk0Uec6-273" value="19" style="text;html=1;align=center;verticalAlign=middle;whiteSpace=wrap;rounded=0;fontFamily=&quot;Latin Mono Regular 12&quot;;fontStyle=1;fontColor=#0000FF;" parent="rEkYpKIjq7FoAjk0Uec6-550" vertex="1">
          <mxGeometry x="40" y="220" width="20" height="20" as="geometry" />
        </mxCell>
        <mxCell id="rEkYpKIjq7FoAjk0Uec6-274" value="20" style="text;html=1;align=center;verticalAlign=middle;whiteSpace=wrap;rounded=0;fontFamily=&quot;Latin Mono Regular 12&quot;;fontStyle=1;fontColor=#0000FF;" parent="rEkYpKIjq7FoAjk0Uec6-550" vertex="1">
          <mxGeometry x="20" y="220" width="20" height="20" as="geometry" />
        </mxCell>
        <mxCell id="rEkYpKIjq7FoAjk0Uec6-275" value="21" style="text;html=1;align=center;verticalAlign=middle;whiteSpace=wrap;rounded=0;fontFamily=&quot;Latin Mono Regular 12&quot;;fontStyle=1;fontColor=#0000FF;" parent="rEkYpKIjq7FoAjk0Uec6-550" vertex="1">
          <mxGeometry x="20" y="240" width="20" height="20" as="geometry" />
        </mxCell>
        <mxCell id="rEkYpKIjq7FoAjk0Uec6-276" value="22" style="text;html=1;align=center;verticalAlign=middle;whiteSpace=wrap;rounded=0;fontFamily=&quot;Latin Mono Regular 12&quot;;fontStyle=1;fontColor=#0000FF;" parent="rEkYpKIjq7FoAjk0Uec6-550" vertex="1">
          <mxGeometry x="20" y="260" width="20" height="20" as="geometry" />
        </mxCell>
        <mxCell id="rEkYpKIjq7FoAjk0Uec6-277" value="23" style="text;html=1;align=center;verticalAlign=middle;whiteSpace=wrap;rounded=0;fontFamily=&quot;Latin Mono Regular 12&quot;;fontStyle=1;fontColor=#0000FF;" parent="rEkYpKIjq7FoAjk0Uec6-550" vertex="1">
          <mxGeometry x="40" y="260" width="20" height="20" as="geometry" />
        </mxCell>
        <mxCell id="rEkYpKIjq7FoAjk0Uec6-278" value="2" style="text;html=1;align=center;verticalAlign=middle;whiteSpace=wrap;rounded=0;fontFamily=&quot;Latin Mono Regular 12&quot;;fontStyle=1;fontColor=#0000FF;" parent="rEkYpKIjq7FoAjk0Uec6-550" vertex="1">
          <mxGeometry x="180" y="100" width="20" height="20" as="geometry" />
        </mxCell>
        <mxCell id="rEkYpKIjq7FoAjk0Uec6-279" value="3" style="text;html=1;align=center;verticalAlign=middle;whiteSpace=wrap;rounded=0;fontFamily=&quot;Latin Mono Regular 12&quot;;fontStyle=1;fontColor=#0000FF;" parent="rEkYpKIjq7FoAjk0Uec6-550" vertex="1">
          <mxGeometry x="200" y="100" width="20" height="20" as="geometry" />
        </mxCell>
        <mxCell id="rEkYpKIjq7FoAjk0Uec6-280" value="4" style="text;html=1;align=center;verticalAlign=middle;whiteSpace=wrap;rounded=0;fontFamily=&quot;Latin Mono Regular 12&quot;;fontStyle=1;fontColor=#0000FF;" parent="rEkYpKIjq7FoAjk0Uec6-550" vertex="1">
          <mxGeometry x="200" y="120" width="20" height="20" as="geometry" />
        </mxCell>
        <mxCell id="rEkYpKIjq7FoAjk0Uec6-281" value="5" style="text;html=1;align=center;verticalAlign=middle;whiteSpace=wrap;rounded=0;fontFamily=&quot;Latin Mono Regular 12&quot;;fontStyle=1;fontColor=#0000FF;" parent="rEkYpKIjq7FoAjk0Uec6-550" vertex="1">
          <mxGeometry x="220" y="120" width="20" height="20" as="geometry" />
        </mxCell>
        <mxCell id="rEkYpKIjq7FoAjk0Uec6-282" value="6" style="text;html=1;align=center;verticalAlign=middle;whiteSpace=wrap;rounded=0;fontFamily=&quot;Latin Mono Regular 12&quot;;fontStyle=1;fontColor=#0000FF;" parent="rEkYpKIjq7FoAjk0Uec6-550" vertex="1">
          <mxGeometry x="220" y="100" width="20" height="20" as="geometry" />
        </mxCell>
        <mxCell id="rEkYpKIjq7FoAjk0Uec6-283" value="7" style="text;html=1;align=center;verticalAlign=middle;whiteSpace=wrap;rounded=0;fontFamily=&quot;Latin Mono Regular 12&quot;;fontStyle=1;fontColor=#0000FF;" parent="rEkYpKIjq7FoAjk0Uec6-550" vertex="1">
          <mxGeometry x="240" y="100" width="20" height="20" as="geometry" />
        </mxCell>
        <mxCell id="rEkYpKIjq7FoAjk0Uec6-284" value="8" style="text;html=1;align=center;verticalAlign=middle;whiteSpace=wrap;rounded=0;fontFamily=&quot;Latin Mono Regular 12&quot;;fontStyle=1;fontColor=#0000FF;" parent="rEkYpKIjq7FoAjk0Uec6-550" vertex="1">
          <mxGeometry x="240" y="120" width="20" height="20" as="geometry" />
        </mxCell>
        <mxCell id="rEkYpKIjq7FoAjk0Uec6-285" value="9" style="text;html=1;align=center;verticalAlign=middle;whiteSpace=wrap;rounded=0;fontFamily=&quot;Latin Mono Regular 12&quot;;fontStyle=1;fontColor=#0000FF;" parent="rEkYpKIjq7FoAjk0Uec6-550" vertex="1">
          <mxGeometry x="240" y="140" width="20" height="20" as="geometry" />
        </mxCell>
        <mxCell id="rEkYpKIjq7FoAjk0Uec6-286" value="10" style="text;html=1;align=center;verticalAlign=middle;whiteSpace=wrap;rounded=0;fontFamily=&quot;Latin Mono Regular 12&quot;;fontStyle=1;fontColor=#0000FF;" parent="rEkYpKIjq7FoAjk0Uec6-550" vertex="1">
          <mxGeometry x="240" y="160" width="20" height="20" as="geometry" />
        </mxCell>
        <mxCell id="rEkYpKIjq7FoAjk0Uec6-287" value="11" style="text;html=1;align=center;verticalAlign=middle;whiteSpace=wrap;rounded=0;fontFamily=&quot;Latin Mono Regular 12&quot;;fontStyle=1;fontColor=#0000FF;" parent="rEkYpKIjq7FoAjk0Uec6-550" vertex="1">
          <mxGeometry x="240" y="180" width="20" height="20" as="geometry" />
        </mxCell>
        <mxCell id="rEkYpKIjq7FoAjk0Uec6-288" value="12" style="text;html=1;align=center;verticalAlign=middle;whiteSpace=wrap;rounded=0;fontFamily=&quot;Latin Mono Regular 12&quot;;fontStyle=1;fontColor=#0000FF;" parent="rEkYpKIjq7FoAjk0Uec6-550" vertex="1">
          <mxGeometry x="240" y="200" width="20" height="20" as="geometry" />
        </mxCell>
        <mxCell id="rEkYpKIjq7FoAjk0Uec6-290" value="13" style="text;html=1;align=center;verticalAlign=middle;whiteSpace=wrap;rounded=0;fontFamily=&quot;Latin Mono Regular 12&quot;;fontStyle=1;fontColor=#0000FF;" parent="rEkYpKIjq7FoAjk0Uec6-550" vertex="1">
          <mxGeometry x="220" y="200" width="20" height="20" as="geometry" />
        </mxCell>
        <mxCell id="rEkYpKIjq7FoAjk0Uec6-291" value="14" style="text;html=1;align=center;verticalAlign=middle;whiteSpace=wrap;rounded=0;fontFamily=&quot;Latin Mono Regular 12&quot;;fontStyle=1;fontColor=#0000FF;" parent="rEkYpKIjq7FoAjk0Uec6-550" vertex="1">
          <mxGeometry x="200" y="200" width="20" height="20" as="geometry" />
        </mxCell>
        <mxCell id="rEkYpKIjq7FoAjk0Uec6-292" value="15" style="text;html=1;align=center;verticalAlign=middle;whiteSpace=wrap;rounded=0;fontFamily=&quot;Latin Mono Regular 12&quot;;fontStyle=1;fontColor=#0000FF;" parent="rEkYpKIjq7FoAjk0Uec6-550" vertex="1">
          <mxGeometry x="180" y="200" width="20" height="20" as="geometry" />
        </mxCell>
        <mxCell id="rEkYpKIjq7FoAjk0Uec6-293" value="16" style="text;html=1;align=center;verticalAlign=middle;whiteSpace=wrap;rounded=0;fontFamily=&quot;Latin Mono Regular 12&quot;;fontStyle=1;fontColor=#0000FF;" parent="rEkYpKIjq7FoAjk0Uec6-550" vertex="1">
          <mxGeometry x="180" y="220" width="20" height="20" as="geometry" />
        </mxCell>
        <mxCell id="rEkYpKIjq7FoAjk0Uec6-294" value="17" style="text;html=1;align=center;verticalAlign=middle;whiteSpace=wrap;rounded=0;fontFamily=&quot;Latin Mono Regular 12&quot;;fontStyle=1;fontColor=#0000FF;" parent="rEkYpKIjq7FoAjk0Uec6-550" vertex="1">
          <mxGeometry x="180" y="240" width="20" height="20" as="geometry" />
        </mxCell>
        <mxCell id="rEkYpKIjq7FoAjk0Uec6-295" value="18" style="text;html=1;align=center;verticalAlign=middle;whiteSpace=wrap;rounded=0;fontFamily=&quot;Latin Mono Regular 12&quot;;fontStyle=1;fontColor=#0000FF;" parent="rEkYpKIjq7FoAjk0Uec6-550" vertex="1">
          <mxGeometry x="180" y="260" width="20" height="20" as="geometry" />
        </mxCell>
        <mxCell id="rEkYpKIjq7FoAjk0Uec6-296" value="19" style="text;html=1;align=center;verticalAlign=middle;whiteSpace=wrap;rounded=0;fontFamily=&quot;Latin Mono Regular 12&quot;;fontStyle=1;fontColor=#0000FF;" parent="rEkYpKIjq7FoAjk0Uec6-550" vertex="1">
          <mxGeometry x="180" y="280" width="20" height="20" as="geometry" />
        </mxCell>
        <mxCell id="rEkYpKIjq7FoAjk0Uec6-297" value="20" style="text;html=1;align=center;verticalAlign=middle;whiteSpace=wrap;rounded=0;fontFamily=&quot;Latin Mono Regular 12&quot;;fontStyle=1;fontColor=#0000FF;" parent="rEkYpKIjq7FoAjk0Uec6-550" vertex="1">
          <mxGeometry x="200" y="280" width="20" height="20" as="geometry" />
        </mxCell>
        <mxCell id="rEkYpKIjq7FoAjk0Uec6-298" value="21" style="text;html=1;align=center;verticalAlign=middle;whiteSpace=wrap;rounded=0;fontFamily=&quot;Latin Mono Regular 12&quot;;fontStyle=1;fontColor=#0000FF;" parent="rEkYpKIjq7FoAjk0Uec6-550" vertex="1">
          <mxGeometry x="220" y="280" width="20" height="20" as="geometry" />
        </mxCell>
        <mxCell id="rEkYpKIjq7FoAjk0Uec6-299" value="22" style="text;html=1;align=center;verticalAlign=middle;whiteSpace=wrap;rounded=0;fontFamily=&quot;Latin Mono Regular 12&quot;;fontStyle=1;fontColor=#0000FF;" parent="rEkYpKIjq7FoAjk0Uec6-550" vertex="1">
          <mxGeometry x="220" y="260" width="20" height="20" as="geometry" />
        </mxCell>
        <mxCell id="rEkYpKIjq7FoAjk0Uec6-300" value="23" style="text;html=1;align=center;verticalAlign=middle;whiteSpace=wrap;rounded=0;fontFamily=&quot;Latin Mono Regular 12&quot;;fontStyle=1;fontColor=#0000FF;" parent="rEkYpKIjq7FoAjk0Uec6-550" vertex="1">
          <mxGeometry x="220" y="240" width="20" height="20" as="geometry" />
        </mxCell>
        <mxCell id="rEkYpKIjq7FoAjk0Uec6-301" value="24" style="text;html=1;align=center;verticalAlign=middle;whiteSpace=wrap;rounded=0;fontFamily=&quot;Latin Mono Regular 12&quot;;fontStyle=1;fontColor=#0000FF;" parent="rEkYpKIjq7FoAjk0Uec6-550" vertex="1">
          <mxGeometry x="240" y="240" width="20" height="20" as="geometry" />
        </mxCell>
        <mxCell id="rEkYpKIjq7FoAjk0Uec6-302" value="25" style="text;html=1;align=center;verticalAlign=middle;whiteSpace=wrap;rounded=0;fontFamily=&quot;Latin Mono Regular 12&quot;;fontStyle=1;fontColor=#0000FF;" parent="rEkYpKIjq7FoAjk0Uec6-550" vertex="1">
          <mxGeometry x="260" y="240" width="20" height="20" as="geometry" />
        </mxCell>
        <mxCell id="rEkYpKIjq7FoAjk0Uec6-303" value="26" style="text;html=1;align=center;verticalAlign=middle;whiteSpace=wrap;rounded=0;fontFamily=&quot;Latin Mono Regular 12&quot;;fontStyle=1;fontColor=#0000FF;" parent="rEkYpKIjq7FoAjk0Uec6-550" vertex="1">
          <mxGeometry x="260" y="260" width="20" height="20" as="geometry" />
        </mxCell>
        <mxCell id="rEkYpKIjq7FoAjk0Uec6-305" value="27" style="text;html=1;align=center;verticalAlign=middle;whiteSpace=wrap;rounded=0;fontFamily=&quot;Latin Mono Regular 12&quot;;fontStyle=1;fontColor=#0000FF;" parent="rEkYpKIjq7FoAjk0Uec6-550" vertex="1">
          <mxGeometry x="260" y="280" width="20" height="20" as="geometry" />
        </mxCell>
        <mxCell id="rEkYpKIjq7FoAjk0Uec6-306" value="1" style="text;html=1;align=center;verticalAlign=middle;whiteSpace=wrap;rounded=0;fontFamily=&quot;Latin Mono Regular 12&quot;;fontStyle=1;fontColor=#000000;" parent="rEkYpKIjq7FoAjk0Uec6-550" vertex="1">
          <mxGeometry x="120" y="100" width="20" height="20" as="geometry" />
        </mxCell>
        <mxCell id="rEkYpKIjq7FoAjk0Uec6-307" value="2" style="text;html=1;align=center;verticalAlign=middle;whiteSpace=wrap;rounded=0;fontFamily=&quot;Latin Mono Regular 12&quot;;fontStyle=1;fontColor=#000000;" parent="rEkYpKIjq7FoAjk0Uec6-550" vertex="1">
          <mxGeometry x="120" y="120" width="20" height="20" as="geometry" />
        </mxCell>
        <mxCell id="rEkYpKIjq7FoAjk0Uec6-310" value="2" style="text;html=1;align=center;verticalAlign=middle;whiteSpace=wrap;rounded=0;fontFamily=&quot;Latin Mono Regular 12&quot;;fontStyle=1;fontColor=#000000;" parent="rEkYpKIjq7FoAjk0Uec6-550" vertex="1">
          <mxGeometry x="160" y="120" width="20" height="20" as="geometry" />
        </mxCell>
        <mxCell id="rEkYpKIjq7FoAjk0Uec6-311" value="3" style="text;html=1;align=center;verticalAlign=middle;whiteSpace=wrap;rounded=0;fontFamily=&quot;Latin Mono Regular 12&quot;;fontStyle=1;fontColor=#000000;" parent="rEkYpKIjq7FoAjk0Uec6-550" vertex="1">
          <mxGeometry x="180" y="120" width="20" height="20" as="geometry" />
        </mxCell>
        <mxCell id="rEkYpKIjq7FoAjk0Uec6-312" value="3" style="text;html=1;align=center;verticalAlign=middle;whiteSpace=wrap;rounded=0;fontFamily=&quot;Latin Mono Regular 12&quot;;fontStyle=1;fontColor=#000000;" parent="rEkYpKIjq7FoAjk0Uec6-550" vertex="1">
          <mxGeometry x="120" y="140" width="20" height="20" as="geometry" />
        </mxCell>
        <mxCell id="rEkYpKIjq7FoAjk0Uec6-313" value="4" style="text;html=1;align=center;verticalAlign=middle;whiteSpace=wrap;rounded=0;fontFamily=&quot;Latin Mono Regular 12&quot;;fontStyle=1;fontColor=#000000;" parent="rEkYpKIjq7FoAjk0Uec6-550" vertex="1">
          <mxGeometry x="180" y="140" width="20" height="20" as="geometry" />
        </mxCell>
        <mxCell id="rEkYpKIjq7FoAjk0Uec6-314" value="4" style="text;html=1;align=center;verticalAlign=middle;whiteSpace=wrap;rounded=0;fontFamily=&quot;Latin Mono Regular 12&quot;;fontStyle=1;fontColor=#000000;" parent="rEkYpKIjq7FoAjk0Uec6-550" vertex="1">
          <mxGeometry x="120" y="160" width="20" height="20" as="geometry" />
        </mxCell>
        <mxCell id="rEkYpKIjq7FoAjk0Uec6-315" value="7" style="text;html=1;align=center;verticalAlign=middle;whiteSpace=wrap;rounded=0;fontFamily=&quot;Latin Mono Regular 12&quot;;fontStyle=1;fontColor=#000000;" parent="rEkYpKIjq7FoAjk0Uec6-550" vertex="1">
          <mxGeometry x="220" y="80" width="20" height="20" as="geometry" />
        </mxCell>
        <mxCell id="rEkYpKIjq7FoAjk0Uec6-316" value="8" style="text;html=1;align=center;verticalAlign=middle;whiteSpace=wrap;rounded=0;fontFamily=&quot;Latin Mono Regular 12&quot;;fontStyle=1;fontColor=#000000;" parent="rEkYpKIjq7FoAjk0Uec6-550" vertex="1">
          <mxGeometry x="240" y="80" width="20" height="20" as="geometry" />
        </mxCell>
        <mxCell id="rEkYpKIjq7FoAjk0Uec6-317" value="8" style="text;html=1;align=center;verticalAlign=middle;whiteSpace=wrap;rounded=0;fontFamily=&quot;Latin Mono Regular 12&quot;;fontStyle=1;fontColor=#000000;" parent="rEkYpKIjq7FoAjk0Uec6-550" vertex="1">
          <mxGeometry x="200" y="80" width="20" height="20" as="geometry" />
        </mxCell>
        <mxCell id="rEkYpKIjq7FoAjk0Uec6-318" value="9" style="text;html=1;align=center;verticalAlign=middle;whiteSpace=wrap;rounded=0;fontFamily=&quot;Latin Mono Regular 12&quot;;fontStyle=1;fontColor=#000000;" parent="rEkYpKIjq7FoAjk0Uec6-550" vertex="1">
          <mxGeometry x="180" y="80" width="20" height="20" as="geometry" />
        </mxCell>
        <mxCell id="rEkYpKIjq7FoAjk0Uec6-369" value="9" style="text;html=1;align=center;verticalAlign=middle;whiteSpace=wrap;rounded=0;fontFamily=&quot;Latin Mono Regular 12&quot;;fontStyle=1;fontColor=#000000;" parent="rEkYpKIjq7FoAjk0Uec6-550" vertex="1">
          <mxGeometry x="120" y="220" width="20" height="20" as="geometry" />
        </mxCell>
        <mxCell id="rEkYpKIjq7FoAjk0Uec6-370" value="10" style="text;html=1;align=center;verticalAlign=middle;whiteSpace=wrap;rounded=0;fontFamily=&quot;Latin Mono Regular 12&quot;;fontStyle=1;fontColor=#000000;" parent="rEkYpKIjq7FoAjk0Uec6-550" vertex="1">
          <mxGeometry x="160" y="80" width="20" height="20" as="geometry" />
        </mxCell>
        <mxCell id="rEkYpKIjq7FoAjk0Uec6-371" value="10" style="text;html=1;align=center;verticalAlign=middle;whiteSpace=wrap;rounded=0;fontFamily=&quot;Latin Mono Regular 12&quot;;fontStyle=1;fontColor=#000000;" parent="rEkYpKIjq7FoAjk0Uec6-550" vertex="1">
          <mxGeometry x="160" y="200" width="20" height="20" as="geometry" />
        </mxCell>
        <mxCell id="rEkYpKIjq7FoAjk0Uec6-372" value="10" style="text;html=1;align=center;verticalAlign=middle;whiteSpace=wrap;rounded=0;fontFamily=&quot;Latin Mono Regular 12&quot;;fontStyle=1;fontColor=#000000;" parent="rEkYpKIjq7FoAjk0Uec6-550" vertex="1">
          <mxGeometry x="40" y="160" width="20" height="20" as="geometry" />
        </mxCell>
        <mxCell id="rEkYpKIjq7FoAjk0Uec6-373" value="11" style="text;html=1;align=center;verticalAlign=middle;whiteSpace=wrap;rounded=0;fontFamily=&quot;Latin Mono Regular 12&quot;;fontStyle=1;fontColor=#000000;" parent="rEkYpKIjq7FoAjk0Uec6-550" vertex="1">
          <mxGeometry x="40" y="180" width="20" height="20" as="geometry" />
        </mxCell>
        <mxCell id="rEkYpKIjq7FoAjk0Uec6-424" value="11" style="text;html=1;align=center;verticalAlign=middle;whiteSpace=wrap;rounded=0;fontFamily=&quot;Latin Mono Regular 12&quot;;fontStyle=1;fontColor=#000000;" parent="rEkYpKIjq7FoAjk0Uec6-550" vertex="1">
          <mxGeometry x="160" y="220" width="20" height="20" as="geometry" />
        </mxCell>
        <mxCell id="rEkYpKIjq7FoAjk0Uec6-425" value="11" style="text;html=1;align=center;verticalAlign=middle;whiteSpace=wrap;rounded=0;fontFamily=&quot;Latin Mono Regular 12&quot;;fontStyle=1;fontColor=#000000;" parent="rEkYpKIjq7FoAjk0Uec6-550" vertex="1">
          <mxGeometry x="220" y="160" width="20" height="20" as="geometry" />
        </mxCell>
        <mxCell id="rEkYpKIjq7FoAjk0Uec6-426" value="11" style="text;html=1;align=center;verticalAlign=middle;whiteSpace=wrap;rounded=0;fontFamily=&quot;Latin Mono Regular 12&quot;;fontStyle=1;fontColor=#000000;" parent="rEkYpKIjq7FoAjk0Uec6-550" vertex="1">
          <mxGeometry x="260" y="160" width="20" height="20" as="geometry" />
        </mxCell>
        <mxCell id="rEkYpKIjq7FoAjk0Uec6-427" value="12" style="text;html=1;align=center;verticalAlign=middle;whiteSpace=wrap;rounded=0;fontFamily=&quot;Latin Mono Regular 12&quot;;fontStyle=1;fontColor=#000000;" parent="rEkYpKIjq7FoAjk0Uec6-550" vertex="1">
          <mxGeometry x="260" y="180" width="20" height="20" as="geometry" />
        </mxCell>
        <mxCell id="rEkYpKIjq7FoAjk0Uec6-428" value="12" style="text;html=1;align=center;verticalAlign=middle;whiteSpace=wrap;rounded=0;fontFamily=&quot;Latin Mono Regular 12&quot;;fontStyle=1;fontColor=#000000;" parent="rEkYpKIjq7FoAjk0Uec6-550" vertex="1">
          <mxGeometry x="200" y="160" width="20" height="20" as="geometry" />
        </mxCell>
        <mxCell id="rEkYpKIjq7FoAjk0Uec6-429" value="12" style="text;html=1;align=center;verticalAlign=middle;whiteSpace=wrap;rounded=0;fontFamily=&quot;Latin Mono Regular 12&quot;;fontStyle=1;fontColor=#000000;" parent="rEkYpKIjq7FoAjk0Uec6-550" vertex="1">
          <mxGeometry x="60" y="180" width="20" height="20" as="geometry" />
        </mxCell>
        <mxCell id="rEkYpKIjq7FoAjk0Uec6-430" value="12" style="text;html=1;align=center;verticalAlign=middle;whiteSpace=wrap;rounded=0;fontFamily=&quot;Latin Mono Regular 12&quot;;fontStyle=1;fontColor=#000000;" parent="rEkYpKIjq7FoAjk0Uec6-550" vertex="1">
          <mxGeometry x="40" y="200" width="20" height="20" as="geometry" />
        </mxCell>
        <mxCell id="rEkYpKIjq7FoAjk0Uec6-431" value="13" style="text;html=1;align=center;verticalAlign=middle;whiteSpace=wrap;rounded=0;fontFamily=&quot;Latin Mono Regular 12&quot;;fontStyle=1;fontColor=#000000;" parent="rEkYpKIjq7FoAjk0Uec6-550" vertex="1">
          <mxGeometry x="80" y="180" width="20" height="20" as="geometry" />
        </mxCell>
        <mxCell id="rEkYpKIjq7FoAjk0Uec6-432" value="13" style="text;html=1;align=center;verticalAlign=middle;whiteSpace=wrap;rounded=0;fontFamily=&quot;Latin Mono Regular 12&quot;;fontStyle=1;fontColor=#000000;" parent="rEkYpKIjq7FoAjk0Uec6-550" vertex="1">
          <mxGeometry x="260" y="200" width="20" height="20" as="geometry" />
        </mxCell>
        <mxCell id="rEkYpKIjq7FoAjk0Uec6-433" value="13" style="text;html=1;align=center;verticalAlign=middle;whiteSpace=wrap;rounded=0;fontFamily=&quot;Latin Mono Regular 12&quot;;fontStyle=1;fontColor=#000000;" parent="rEkYpKIjq7FoAjk0Uec6-550" vertex="1">
          <mxGeometry x="280" y="180" width="20" height="20" as="geometry" />
        </mxCell>
        <mxCell id="rEkYpKIjq7FoAjk0Uec6-434" value="13" style="text;html=1;align=center;verticalAlign=middle;whiteSpace=wrap;rounded=0;fontFamily=&quot;Latin Mono Regular 12&quot;;fontStyle=1;fontColor=#000000;" parent="rEkYpKIjq7FoAjk0Uec6-550" vertex="1">
          <mxGeometry x="200" y="180" width="20" height="20" as="geometry" />
        </mxCell>
        <mxCell id="rEkYpKIjq7FoAjk0Uec6-435" value="14" style="text;html=1;align=center;verticalAlign=middle;whiteSpace=wrap;rounded=0;fontFamily=&quot;Latin Mono Regular 12&quot;;fontStyle=1;fontColor=#000000;" parent="rEkYpKIjq7FoAjk0Uec6-550" vertex="1">
          <mxGeometry x="100" y="180" width="20" height="20" as="geometry" />
        </mxCell>
        <mxCell id="rEkYpKIjq7FoAjk0Uec6-436" value="14" style="text;html=1;align=center;verticalAlign=middle;whiteSpace=wrap;rounded=0;fontFamily=&quot;Latin Mono Regular 12&quot;;fontStyle=1;fontColor=#000000;" parent="rEkYpKIjq7FoAjk0Uec6-550" vertex="1">
          <mxGeometry x="180" y="180" width="20" height="20" as="geometry" />
        </mxCell>
        <mxCell id="rEkYpKIjq7FoAjk0Uec6-437" value="14" style="text;html=1;align=center;verticalAlign=middle;whiteSpace=wrap;rounded=0;fontFamily=&quot;Latin Mono Regular 12&quot;;fontStyle=1;fontColor=#000000;" parent="rEkYpKIjq7FoAjk0Uec6-550" vertex="1">
          <mxGeometry x="260" y="220" width="20" height="20" as="geometry" />
        </mxCell>
        <mxCell id="rEkYpKIjq7FoAjk0Uec6-438" value="13" style="text;html=1;align=center;verticalAlign=middle;whiteSpace=wrap;rounded=0;fontFamily=&quot;Latin Mono Regular 12&quot;;fontStyle=1;fontColor=#000000;" parent="rEkYpKIjq7FoAjk0Uec6-550" vertex="1">
          <mxGeometry x="240" y="220" width="20" height="20" as="geometry" />
        </mxCell>
        <mxCell id="rEkYpKIjq7FoAjk0Uec6-439" value="14" style="text;html=1;align=center;verticalAlign=middle;whiteSpace=wrap;rounded=0;fontFamily=&quot;Latin Mono Regular 12&quot;;fontStyle=1;fontColor=#000000;" parent="rEkYpKIjq7FoAjk0Uec6-550" vertex="1">
          <mxGeometry x="220" y="220" width="20" height="20" as="geometry" />
        </mxCell>
        <mxCell id="rEkYpKIjq7FoAjk0Uec6-440" value="14" style="text;html=1;align=center;verticalAlign=middle;whiteSpace=wrap;rounded=0;fontFamily=&quot;Latin Mono Regular 12&quot;;fontStyle=1;fontColor=#000000;" parent="rEkYpKIjq7FoAjk0Uec6-550" vertex="1">
          <mxGeometry x="60" y="100" width="20" height="20" as="geometry" />
        </mxCell>
        <mxCell id="rEkYpKIjq7FoAjk0Uec6-441" value="14" style="text;html=1;align=center;verticalAlign=middle;whiteSpace=wrap;rounded=0;fontFamily=&quot;Latin Mono Regular 12&quot;;fontStyle=1;fontColor=#000000;" parent="rEkYpKIjq7FoAjk0Uec6-550" vertex="1">
          <mxGeometry x="20" y="100" width="20" height="20" as="geometry" />
        </mxCell>
        <mxCell id="rEkYpKIjq7FoAjk0Uec6-442" value="14" style="text;html=1;align=center;verticalAlign=middle;whiteSpace=wrap;rounded=0;fontFamily=&quot;Latin Mono Regular 12&quot;;fontStyle=1;fontColor=#000000;" parent="rEkYpKIjq7FoAjk0Uec6-550" vertex="1">
          <mxGeometry x="120" y="280" width="20" height="20" as="geometry" />
        </mxCell>
        <mxCell id="rEkYpKIjq7FoAjk0Uec6-443" value="15" style="text;html=1;align=center;verticalAlign=middle;whiteSpace=wrap;rounded=0;fontFamily=&quot;Latin Mono Regular 12&quot;;fontStyle=1;fontColor=#000000;" parent="rEkYpKIjq7FoAjk0Uec6-550" vertex="1">
          <mxGeometry x="100" y="280" width="20" height="20" as="geometry" />
        </mxCell>
        <mxCell id="rEkYpKIjq7FoAjk0Uec6-444" value="15" style="text;html=1;align=center;verticalAlign=middle;whiteSpace=wrap;rounded=0;fontFamily=&quot;Latin Mono Regular 12&quot;;fontStyle=1;fontColor=#000000;" parent="rEkYpKIjq7FoAjk0Uec6-550" vertex="1">
          <mxGeometry x="140" y="280" width="20" height="20" as="geometry" />
        </mxCell>
        <mxCell id="rEkYpKIjq7FoAjk0Uec6-445" value="15" style="text;html=1;align=center;verticalAlign=middle;whiteSpace=wrap;rounded=0;fontFamily=&quot;Latin Mono Regular 12&quot;;fontStyle=1;fontColor=#000000;" parent="rEkYpKIjq7FoAjk0Uec6-550" vertex="1">
          <mxGeometry x="200" y="220" width="20" height="20" as="geometry" />
        </mxCell>
        <mxCell id="rEkYpKIjq7FoAjk0Uec6-446" value="15" style="text;html=1;align=center;verticalAlign=middle;whiteSpace=wrap;rounded=0;fontFamily=&quot;Latin Mono Regular 12&quot;;fontStyle=1;fontColor=#000000;" parent="rEkYpKIjq7FoAjk0Uec6-550" vertex="1">
          <mxGeometry x="280" y="220" width="20" height="20" as="geometry" />
        </mxCell>
        <mxCell id="rEkYpKIjq7FoAjk0Uec6-447" value="15" style="text;html=1;align=center;verticalAlign=middle;whiteSpace=wrap;rounded=0;fontFamily=&quot;Latin Mono Regular 12&quot;;fontStyle=1;fontColor=#000000;" parent="rEkYpKIjq7FoAjk0Uec6-550" vertex="1">
          <mxGeometry x="80" y="100" width="20" height="20" as="geometry" />
        </mxCell>
        <mxCell id="rEkYpKIjq7FoAjk0Uec6-448" value="15" style="text;html=1;align=center;verticalAlign=middle;whiteSpace=wrap;rounded=0;fontFamily=&quot;Latin Mono Regular 12&quot;;fontStyle=1;fontColor=#000000;" parent="rEkYpKIjq7FoAjk0Uec6-550" vertex="1">
          <mxGeometry x="20" y="80" width="20" height="20" as="geometry" />
        </mxCell>
        <mxCell id="rEkYpKIjq7FoAjk0Uec6-449" value="16" style="text;html=1;align=center;verticalAlign=middle;whiteSpace=wrap;rounded=0;fontFamily=&quot;Latin Mono Regular 12&quot;;fontStyle=1;fontColor=#000000;" parent="rEkYpKIjq7FoAjk0Uec6-550" vertex="1">
          <mxGeometry x="20" y="60" width="20" height="20" as="geometry" />
        </mxCell>
        <mxCell id="rEkYpKIjq7FoAjk0Uec6-451" value="16" style="text;html=1;align=center;verticalAlign=middle;whiteSpace=wrap;rounded=0;fontFamily=&quot;Latin Mono Regular 12&quot;;fontStyle=1;fontColor=#000000;" parent="rEkYpKIjq7FoAjk0Uec6-550" vertex="1">
          <mxGeometry y="80" width="20" height="20" as="geometry" />
        </mxCell>
        <mxCell id="rEkYpKIjq7FoAjk0Uec6-452" value="16" style="text;html=1;align=center;verticalAlign=middle;whiteSpace=wrap;rounded=0;fontFamily=&quot;Latin Mono Regular 12&quot;;fontStyle=1;fontColor=#000000;" parent="rEkYpKIjq7FoAjk0Uec6-550" vertex="1">
          <mxGeometry x="60" y="60" width="20" height="20" as="geometry" />
        </mxCell>
        <mxCell id="rEkYpKIjq7FoAjk0Uec6-453" value="16" style="text;html=1;align=center;verticalAlign=middle;whiteSpace=wrap;rounded=0;fontFamily=&quot;Latin Mono Regular 12&quot;;fontStyle=1;fontColor=#000000;" parent="rEkYpKIjq7FoAjk0Uec6-550" vertex="1">
          <mxGeometry x="80" y="120" width="20" height="20" as="geometry" />
        </mxCell>
        <mxCell id="rEkYpKIjq7FoAjk0Uec6-454" value="16" style="text;html=1;align=center;verticalAlign=middle;whiteSpace=wrap;rounded=0;fontFamily=&quot;Latin Mono Regular 12&quot;;fontStyle=1;fontColor=#000000;" parent="rEkYpKIjq7FoAjk0Uec6-550" vertex="1">
          <mxGeometry x="80" y="80" width="20" height="20" as="geometry" />
        </mxCell>
        <mxCell id="rEkYpKIjq7FoAjk0Uec6-455" value="16" style="text;html=1;align=center;verticalAlign=middle;whiteSpace=wrap;rounded=0;fontFamily=&quot;Latin Mono Regular 12&quot;;fontStyle=1;fontColor=#000000;" parent="rEkYpKIjq7FoAjk0Uec6-550" vertex="1">
          <mxGeometry x="200" y="240" width="20" height="20" as="geometry" />
        </mxCell>
        <mxCell id="rEkYpKIjq7FoAjk0Uec6-456" value="16" style="text;html=1;align=center;verticalAlign=middle;whiteSpace=wrap;rounded=0;fontFamily=&quot;Latin Mono Regular 12&quot;;fontStyle=1;fontColor=#000000;" parent="rEkYpKIjq7FoAjk0Uec6-550" vertex="1">
          <mxGeometry x="160" y="280" width="20" height="20" as="geometry" />
        </mxCell>
        <mxCell id="rEkYpKIjq7FoAjk0Uec6-457" value="16" style="text;html=1;align=center;verticalAlign=middle;whiteSpace=wrap;rounded=0;fontFamily=&quot;Latin Mono Regular 12&quot;;fontStyle=1;fontColor=#000000;" parent="rEkYpKIjq7FoAjk0Uec6-550" vertex="1">
          <mxGeometry x="60" y="260" width="20" height="20" as="geometry" />
        </mxCell>
        <mxCell id="rEkYpKIjq7FoAjk0Uec6-458" value="17" style="text;html=1;align=center;verticalAlign=middle;whiteSpace=wrap;rounded=0;fontFamily=&quot;Latin Mono Regular 12&quot;;fontStyle=1;fontColor=#000000;" parent="rEkYpKIjq7FoAjk0Uec6-550" vertex="1">
          <mxGeometry x="60" y="240" width="20" height="20" as="geometry" />
        </mxCell>
        <mxCell id="rEkYpKIjq7FoAjk0Uec6-509" value="17" style="text;html=1;align=center;verticalAlign=middle;whiteSpace=wrap;rounded=0;fontFamily=&quot;Latin Mono Regular 12&quot;;fontStyle=1;fontColor=#000000;" parent="rEkYpKIjq7FoAjk0Uec6-550" vertex="1">
          <mxGeometry x="60" y="280" width="20" height="20" as="geometry" />
        </mxCell>
        <mxCell id="rEkYpKIjq7FoAjk0Uec6-510" value="17" style="text;html=1;align=center;verticalAlign=middle;whiteSpace=wrap;rounded=0;fontFamily=&quot;Latin Mono Regular 12&quot;;fontStyle=1;fontColor=#000000;" parent="rEkYpKIjq7FoAjk0Uec6-550" vertex="1">
          <mxGeometry x="20" y="40" width="20" height="20" as="geometry" />
        </mxCell>
        <mxCell id="rEkYpKIjq7FoAjk0Uec6-511" value="17" style="text;html=1;align=center;verticalAlign=middle;whiteSpace=wrap;rounded=0;fontFamily=&quot;Latin Mono Regular 12&quot;;fontStyle=1;fontColor=#000000;" parent="rEkYpKIjq7FoAjk0Uec6-550" vertex="1">
          <mxGeometry x="80" y="60" width="20" height="20" as="geometry" />
        </mxCell>
        <mxCell id="rEkYpKIjq7FoAjk0Uec6-512" value="17" style="text;html=1;align=center;verticalAlign=middle;whiteSpace=wrap;rounded=0;fontFamily=&quot;Latin Mono Regular 12&quot;;fontStyle=1;fontColor=#000000;" parent="rEkYpKIjq7FoAjk0Uec6-550" vertex="1">
          <mxGeometry x="200" y="260" width="20" height="20" as="geometry" />
        </mxCell>
        <mxCell id="rEkYpKIjq7FoAjk0Uec6-513" value="18" style="text;html=1;align=center;verticalAlign=middle;whiteSpace=wrap;rounded=0;fontFamily=&quot;Latin Mono Regular 12&quot;;fontStyle=1;fontColor=#000000;" parent="rEkYpKIjq7FoAjk0Uec6-550" vertex="1">
          <mxGeometry x="60" y="20" width="20" height="20" as="geometry" />
        </mxCell>
        <mxCell id="rEkYpKIjq7FoAjk0Uec6-514" value="18" style="text;html=1;align=center;verticalAlign=middle;whiteSpace=wrap;rounded=0;fontFamily=&quot;Latin Mono Regular 12&quot;;fontStyle=1;fontColor=#000000;" parent="rEkYpKIjq7FoAjk0Uec6-550" vertex="1">
          <mxGeometry x="100" y="60" width="20" height="20" as="geometry" />
        </mxCell>
        <mxCell id="rEkYpKIjq7FoAjk0Uec6-515" value="18" style="text;html=1;align=center;verticalAlign=middle;whiteSpace=wrap;rounded=0;fontFamily=&quot;Latin Mono Regular 12&quot;;fontStyle=1;fontColor=#000000;" parent="rEkYpKIjq7FoAjk0Uec6-550" vertex="1">
          <mxGeometry x="80" y="280" width="20" height="20" as="geometry" />
        </mxCell>
        <mxCell id="rEkYpKIjq7FoAjk0Uec6-516" value="18" style="text;html=1;align=center;verticalAlign=middle;whiteSpace=wrap;rounded=0;fontFamily=&quot;Latin Mono Regular 12&quot;;fontStyle=1;fontColor=#000000;" parent="rEkYpKIjq7FoAjk0Uec6-550" vertex="1">
          <mxGeometry x="40" y="240" width="20" height="20" as="geometry" />
        </mxCell>
        <mxCell id="rEkYpKIjq7FoAjk0Uec6-517" value="18" style="text;html=1;align=center;verticalAlign=middle;whiteSpace=wrap;rounded=0;fontFamily=&quot;Latin Mono Regular 12&quot;;fontStyle=1;fontColor=#000000;" parent="rEkYpKIjq7FoAjk0Uec6-550" vertex="1">
          <mxGeometry x="100" y="220" width="20" height="20" as="geometry" />
        </mxCell>
        <mxCell id="rEkYpKIjq7FoAjk0Uec6-518" value="19" style="text;html=1;align=center;verticalAlign=middle;whiteSpace=wrap;rounded=0;fontFamily=&quot;Latin Mono Regular 12&quot;;fontStyle=1;fontColor=#000000;" parent="rEkYpKIjq7FoAjk0Uec6-550" vertex="1">
          <mxGeometry x="60" y="200" width="20" height="20" as="geometry" />
        </mxCell>
        <mxCell id="rEkYpKIjq7FoAjk0Uec6-519" value="19" style="text;html=1;align=center;verticalAlign=middle;whiteSpace=wrap;rounded=0;fontFamily=&quot;Latin Mono Regular 12&quot;;fontStyle=1;fontColor=#000000;" parent="rEkYpKIjq7FoAjk0Uec6-550" vertex="1">
          <mxGeometry x="60" width="20" height="20" as="geometry" />
        </mxCell>
        <mxCell id="rEkYpKIjq7FoAjk0Uec6-520" value="19" style="text;html=1;align=center;verticalAlign=middle;whiteSpace=wrap;rounded=0;fontFamily=&quot;Latin Mono Regular 12&quot;;fontStyle=1;fontColor=#000000;" parent="rEkYpKIjq7FoAjk0Uec6-550" vertex="1">
          <mxGeometry x="120" y="60" width="20" height="20" as="geometry" />
        </mxCell>
        <mxCell id="rEkYpKIjq7FoAjk0Uec6-521" value="20" style="text;html=1;align=center;verticalAlign=middle;whiteSpace=wrap;rounded=0;fontFamily=&quot;Latin Mono Regular 12&quot;;fontStyle=1;fontColor=#000000;" parent="rEkYpKIjq7FoAjk0Uec6-550" vertex="1">
          <mxGeometry x="40" width="20" height="20" as="geometry" />
        </mxCell>
        <mxCell id="rEkYpKIjq7FoAjk0Uec6-522" value="20" style="text;html=1;align=center;verticalAlign=middle;whiteSpace=wrap;rounded=0;fontFamily=&quot;Latin Mono Regular 12&quot;;fontStyle=1;fontColor=#000000;" parent="rEkYpKIjq7FoAjk0Uec6-550" vertex="1">
          <mxGeometry x="140" y="60" width="20" height="20" as="geometry" />
        </mxCell>
        <mxCell id="rEkYpKIjq7FoAjk0Uec6-523" value="20" style="text;html=1;align=center;verticalAlign=middle;whiteSpace=wrap;rounded=0;fontFamily=&quot;Latin Mono Regular 12&quot;;fontStyle=1;fontColor=#000000;" parent="rEkYpKIjq7FoAjk0Uec6-550" vertex="1">
          <mxGeometry x="120" y="40" width="20" height="20" as="geometry" />
        </mxCell>
        <mxCell id="rEkYpKIjq7FoAjk0Uec6-524" value="20" style="text;html=1;align=center;verticalAlign=middle;whiteSpace=wrap;rounded=0;fontFamily=&quot;Latin Mono Regular 12&quot;;fontStyle=1;fontColor=#000000;" parent="rEkYpKIjq7FoAjk0Uec6-550" vertex="1">
          <mxGeometry x="80" y="200" width="20" height="20" as="geometry" />
        </mxCell>
        <mxCell id="rEkYpKIjq7FoAjk0Uec6-525" value="21" style="text;html=1;align=center;verticalAlign=middle;whiteSpace=wrap;rounded=0;fontFamily=&quot;Latin Mono Regular 12&quot;;fontStyle=1;fontColor=#000000;" parent="rEkYpKIjq7FoAjk0Uec6-550" vertex="1">
          <mxGeometry x="100" width="20" height="20" as="geometry" />
        </mxCell>
        <mxCell id="rEkYpKIjq7FoAjk0Uec6-526" value="21" style="text;html=1;align=center;verticalAlign=middle;whiteSpace=wrap;rounded=0;fontFamily=&quot;Latin Mono Regular 12&quot;;fontStyle=1;fontColor=#000000;" parent="rEkYpKIjq7FoAjk0Uec6-550" vertex="1">
          <mxGeometry x="140" y="40" width="20" height="20" as="geometry" />
        </mxCell>
        <mxCell id="rEkYpKIjq7FoAjk0Uec6-527" value="21" style="text;html=1;align=center;verticalAlign=middle;whiteSpace=wrap;rounded=0;fontFamily=&quot;Latin Mono Regular 12&quot;;fontStyle=1;fontColor=#000000;" parent="rEkYpKIjq7FoAjk0Uec6-550" vertex="1">
          <mxGeometry x="160" y="60" width="20" height="20" as="geometry" />
        </mxCell>
        <mxCell id="rEkYpKIjq7FoAjk0Uec6-528" value="21" style="text;html=1;align=center;verticalAlign=middle;whiteSpace=wrap;rounded=0;fontFamily=&quot;Latin Mono Regular 12&quot;;fontStyle=1;fontColor=#000000;" parent="rEkYpKIjq7FoAjk0Uec6-550" vertex="1">
          <mxGeometry x="20" y="200" width="20" height="20" as="geometry" />
        </mxCell>
        <mxCell id="rEkYpKIjq7FoAjk0Uec6-529" value="21" style="text;html=1;align=center;verticalAlign=middle;whiteSpace=wrap;rounded=0;fontFamily=&quot;Latin Mono Regular 12&quot;;fontStyle=1;fontColor=#000000;" parent="rEkYpKIjq7FoAjk0Uec6-550" vertex="1">
          <mxGeometry y="220" width="20" height="20" as="geometry" />
        </mxCell>
        <mxCell id="rEkYpKIjq7FoAjk0Uec6-530" value="22" style="text;html=1;align=center;verticalAlign=middle;whiteSpace=wrap;rounded=0;fontFamily=&quot;Latin Mono Regular 12&quot;;fontStyle=1;fontColor=#000000;" parent="rEkYpKIjq7FoAjk0Uec6-550" vertex="1">
          <mxGeometry x="120" width="20" height="20" as="geometry" />
        </mxCell>
        <mxCell id="rEkYpKIjq7FoAjk0Uec6-531" value="22" style="text;html=1;align=center;verticalAlign=middle;whiteSpace=wrap;rounded=0;fontFamily=&quot;Latin Mono Regular 12&quot;;fontStyle=1;fontColor=#000000;" parent="rEkYpKIjq7FoAjk0Uec6-550" vertex="1">
          <mxGeometry x="20" y="180" width="20" height="20" as="geometry" />
        </mxCell>
        <mxCell id="rEkYpKIjq7FoAjk0Uec6-532" value="22" style="text;html=1;align=center;verticalAlign=middle;whiteSpace=wrap;rounded=0;fontFamily=&quot;Latin Mono Regular 12&quot;;fontStyle=1;fontColor=#000000;" parent="rEkYpKIjq7FoAjk0Uec6-550" vertex="1">
          <mxGeometry x="240" y="280" width="20" height="20" as="geometry" />
        </mxCell>
        <mxCell id="rEkYpKIjq7FoAjk0Uec6-533" value="23" style="text;html=1;align=center;verticalAlign=middle;whiteSpace=wrap;rounded=0;fontFamily=&quot;Latin Mono Regular 12&quot;;fontStyle=1;fontColor=#000000;" parent="rEkYpKIjq7FoAjk0Uec6-550" vertex="1">
          <mxGeometry x="240" y="260" width="20" height="20" as="geometry" />
        </mxCell>
        <mxCell id="rEkYpKIjq7FoAjk0Uec6-534" value="23" style="text;html=1;align=center;verticalAlign=middle;whiteSpace=wrap;rounded=0;fontFamily=&quot;Latin Mono Regular 12&quot;;fontStyle=1;fontColor=#000000;" parent="rEkYpKIjq7FoAjk0Uec6-550" vertex="1">
          <mxGeometry x="20" y="280" width="20" height="20" as="geometry" />
        </mxCell>
        <mxCell id="rEkYpKIjq7FoAjk0Uec6-535" value="23" style="text;html=1;align=center;verticalAlign=middle;whiteSpace=wrap;rounded=0;fontFamily=&quot;Latin Mono Regular 12&quot;;fontStyle=1;fontColor=#000000;" parent="rEkYpKIjq7FoAjk0Uec6-550" vertex="1">
          <mxGeometry y="260" width="20" height="20" as="geometry" />
        </mxCell>
        <mxCell id="rEkYpKIjq7FoAjk0Uec6-536" value="23" style="text;html=1;align=center;verticalAlign=middle;whiteSpace=wrap;rounded=0;fontFamily=&quot;Latin Mono Regular 12&quot;;fontStyle=1;fontColor=#000000;" parent="rEkYpKIjq7FoAjk0Uec6-550" vertex="1">
          <mxGeometry y="180" width="20" height="20" as="geometry" />
        </mxCell>
        <mxCell id="rEkYpKIjq7FoAjk0Uec6-537" value="24" style="text;html=1;align=center;verticalAlign=middle;whiteSpace=wrap;rounded=0;fontFamily=&quot;Latin Mono Regular 12&quot;;fontStyle=1;fontColor=#000000;" parent="rEkYpKIjq7FoAjk0Uec6-550" vertex="1">
          <mxGeometry y="280" width="20" height="20" as="geometry" />
        </mxCell>
        <mxCell id="rEkYpKIjq7FoAjk0Uec6-538" value="24" style="text;html=1;align=center;verticalAlign=middle;whiteSpace=wrap;rounded=0;fontFamily=&quot;Latin Mono Regular 12&quot;;fontStyle=1;fontColor=#000000;" parent="rEkYpKIjq7FoAjk0Uec6-550" vertex="1">
          <mxGeometry x="160" width="20" height="20" as="geometry" />
        </mxCell>
        <mxCell id="rEkYpKIjq7FoAjk0Uec6-539" value="25" style="text;html=1;align=center;verticalAlign=middle;whiteSpace=wrap;rounded=0;fontFamily=&quot;Latin Mono Regular 12&quot;;fontStyle=1;fontColor=#000000;" parent="rEkYpKIjq7FoAjk0Uec6-550" vertex="1">
          <mxGeometry x="180" width="20" height="20" as="geometry" />
        </mxCell>
        <mxCell id="rEkYpKIjq7FoAjk0Uec6-540" value="26" style="text;html=1;align=center;verticalAlign=middle;whiteSpace=wrap;rounded=0;fontFamily=&quot;Latin Mono Regular 12&quot;;fontStyle=1;fontColor=#000000;" parent="rEkYpKIjq7FoAjk0Uec6-550" vertex="1">
          <mxGeometry x="200" width="20" height="20" as="geometry" />
        </mxCell>
        <mxCell id="rEkYpKIjq7FoAjk0Uec6-541" value="26" style="text;html=1;align=center;verticalAlign=middle;whiteSpace=wrap;rounded=0;fontFamily=&quot;Latin Mono Regular 12&quot;;fontStyle=1;fontColor=#000000;" parent="rEkYpKIjq7FoAjk0Uec6-550" vertex="1">
          <mxGeometry x="200" y="40" width="20" height="20" as="geometry" />
        </mxCell>
        <mxCell id="rEkYpKIjq7FoAjk0Uec6-542" value="27" style="text;html=1;align=center;verticalAlign=middle;whiteSpace=wrap;rounded=0;fontFamily=&quot;Latin Mono Regular 12&quot;;fontStyle=1;fontColor=#000000;" parent="rEkYpKIjq7FoAjk0Uec6-550" vertex="1">
          <mxGeometry x="200" y="20" width="20" height="20" as="geometry" />
        </mxCell>
        <mxCell id="rEkYpKIjq7FoAjk0Uec6-543" value="27" style="text;html=1;align=center;verticalAlign=middle;whiteSpace=wrap;rounded=0;fontFamily=&quot;Latin Mono Regular 12&quot;;fontStyle=1;fontColor=#000000;" parent="rEkYpKIjq7FoAjk0Uec6-550" vertex="1">
          <mxGeometry x="220" width="20" height="20" as="geometry" />
        </mxCell>
        <mxCell id="rEkYpKIjq7FoAjk0Uec6-544" value="27" style="text;html=1;align=center;verticalAlign=middle;whiteSpace=wrap;rounded=0;fontFamily=&quot;Latin Mono Regular 12&quot;;fontStyle=1;fontColor=#000000;" parent="rEkYpKIjq7FoAjk0Uec6-550" vertex="1">
          <mxGeometry x="220" y="40" width="20" height="20" as="geometry" />
        </mxCell>
        <mxCell id="rEkYpKIjq7FoAjk0Uec6-545" value="27" style="text;html=1;align=center;verticalAlign=middle;whiteSpace=wrap;rounded=0;fontFamily=&quot;Latin Mono Regular 12&quot;;fontStyle=1;fontColor=#000000;" parent="rEkYpKIjq7FoAjk0Uec6-550" vertex="1">
          <mxGeometry x="280" y="260" width="20" height="20" as="geometry" />
        </mxCell>
        <mxCell id="rEkYpKIjq7FoAjk0Uec6-546" value="31" style="text;html=1;align=center;verticalAlign=middle;whiteSpace=wrap;rounded=0;fontFamily=&quot;Latin Mono Regular 12&quot;;fontStyle=1;fontColor=#000000;" parent="rEkYpKIjq7FoAjk0Uec6-550" vertex="1">
          <mxGeometry x="240" y="20" width="20" height="20" as="geometry" />
        </mxCell>
        <mxCell id="rEkYpKIjq7FoAjk0Uec6-547" value="32" style="text;html=1;align=center;verticalAlign=middle;whiteSpace=wrap;rounded=0;fontFamily=&quot;Latin Mono Regular 12&quot;;fontStyle=1;fontColor=#000000;" parent="rEkYpKIjq7FoAjk0Uec6-550" vertex="1">
          <mxGeometry x="260" y="20" width="20" height="20" as="geometry" />
        </mxCell>
        <mxCell id="rEkYpKIjq7FoAjk0Uec6-548" value="33" style="text;html=1;align=center;verticalAlign=middle;whiteSpace=wrap;rounded=0;fontFamily=&quot;Latin Mono Regular 12&quot;;fontStyle=1;fontColor=#000000;" parent="rEkYpKIjq7FoAjk0Uec6-550" vertex="1">
          <mxGeometry x="260" width="20" height="20" as="geometry" />
        </mxCell>
        <mxCell id="rEkYpKIjq7FoAjk0Uec6-549" value="34" style="text;html=1;align=center;verticalAlign=middle;whiteSpace=wrap;rounded=0;fontFamily=&quot;Latin Mono Regular 12&quot;;fontStyle=1;fontColor=#000000;" parent="rEkYpKIjq7FoAjk0Uec6-550" vertex="1">
          <mxGeometry x="280" width="20" height="20" as="geometry" />
        </mxCell>
        <mxCell id="rEkYpKIjq7FoAjk0Uec6-552" value="" style="endArrow=none;html=1;rounded=0;strokeColor=#0000FF;" parent="1" edge="1">
          <mxGeometry width="50" height="50" relative="1" as="geometry">
            <mxPoint x="530" y="210" as="sourcePoint" />
            <mxPoint x="530" y="230" as="targetPoint" />
          </mxGeometry>
        </mxCell>
        <mxCell id="rEkYpKIjq7FoAjk0Uec6-554" value="" style="endArrow=none;html=1;rounded=0;strokeColor=#FF0000;" parent="1" edge="1">
          <mxGeometry width="50" height="50" relative="1" as="geometry">
            <mxPoint x="530" y="430" as="sourcePoint" />
            <mxPoint x="530" y="450" as="targetPoint" />
          </mxGeometry>
        </mxCell>
        <mxCell id="rEkYpKIjq7FoAjk0Uec6-555" value="" style="endArrow=none;html=1;rounded=0;strokeColor=#0000FF;" parent="1" edge="1">
          <mxGeometry width="50" height="50" relative="1" as="geometry">
            <mxPoint x="510" y="410" as="sourcePoint" />
            <mxPoint x="510" y="430" as="targetPoint" />
          </mxGeometry>
        </mxCell>
        <mxCell id="rEkYpKIjq7FoAjk0Uec6-556" value="" style="endArrow=none;html=1;rounded=0;strokeColor=#FF0000;" parent="1" edge="1">
          <mxGeometry width="50" height="50" relative="1" as="geometry">
            <mxPoint x="530" y="430" as="sourcePoint" />
            <mxPoint x="510" y="430" as="targetPoint" />
          </mxGeometry>
        </mxCell>
        <mxCell id="rEkYpKIjq7FoAjk0Uec6-557" value="" style="endArrow=none;html=1;rounded=0;strokeColor=#0000FF;" parent="1" edge="1">
          <mxGeometry width="50" height="50" relative="1" as="geometry">
            <mxPoint x="530" y="210" as="sourcePoint" />
            <mxPoint x="490" y="210" as="targetPoint" />
          </mxGeometry>
        </mxCell>
        <mxCell id="rEkYpKIjq7FoAjk0Uec6-558" value="" style="endArrow=none;html=1;rounded=0;strokeColor=#0000FF;" parent="1" edge="1">
          <mxGeometry width="50" height="50" relative="1" as="geometry">
            <mxPoint x="489.79999999999995" y="210" as="sourcePoint" />
            <mxPoint x="489.79999999999995" y="230" as="targetPoint" />
          </mxGeometry>
        </mxCell>
        <mxCell id="rEkYpKIjq7FoAjk0Uec6-560" value="" style="endArrow=none;html=1;rounded=0;strokeColor=#0000FF;" parent="1" edge="1">
          <mxGeometry width="50" height="50" relative="1" as="geometry">
            <mxPoint x="490" y="230" as="sourcePoint" />
            <mxPoint x="430" y="230" as="targetPoint" />
          </mxGeometry>
        </mxCell>
        <mxCell id="rEkYpKIjq7FoAjk0Uec6-561" value="" style="endArrow=none;html=1;rounded=0;strokeColor=#0000FF;" parent="1" edge="1">
          <mxGeometry width="50" height="50" relative="1" as="geometry">
            <mxPoint x="430" y="210" as="sourcePoint" />
            <mxPoint x="430" y="230" as="targetPoint" />
          </mxGeometry>
        </mxCell>
        <mxCell id="rEkYpKIjq7FoAjk0Uec6-562" value="" style="endArrow=none;html=1;rounded=0;strokeColor=#0000FF;" parent="1" edge="1">
          <mxGeometry width="50" height="50" relative="1" as="geometry">
            <mxPoint x="430" y="210" as="sourcePoint" />
            <mxPoint x="410" y="210" as="targetPoint" />
          </mxGeometry>
        </mxCell>
        <mxCell id="rEkYpKIjq7FoAjk0Uec6-565" value="" style="endArrow=none;html=1;rounded=0;strokeColor=#0000FF;" parent="1" edge="1">
          <mxGeometry width="50" height="50" relative="1" as="geometry">
            <mxPoint x="410" y="190" as="sourcePoint" />
            <mxPoint x="410" y="210" as="targetPoint" />
          </mxGeometry>
        </mxCell>
        <mxCell id="rEkYpKIjq7FoAjk0Uec6-566" value="" style="endArrow=none;html=1;rounded=0;strokeColor=#0000FF;" parent="1" edge="1">
          <mxGeometry width="50" height="50" relative="1" as="geometry">
            <mxPoint x="410" y="190" as="sourcePoint" />
            <mxPoint x="350" y="190" as="targetPoint" />
          </mxGeometry>
        </mxCell>
        <mxCell id="rEkYpKIjq7FoAjk0Uec6-567" value="" style="endArrow=none;html=1;rounded=0;strokeColor=#0000FF;" parent="1" edge="1">
          <mxGeometry width="50" height="50" relative="1" as="geometry">
            <mxPoint x="350" y="190" as="sourcePoint" />
            <mxPoint x="350" y="210" as="targetPoint" />
          </mxGeometry>
        </mxCell>
        <mxCell id="rEkYpKIjq7FoAjk0Uec6-568" value="" style="endArrow=none;html=1;rounded=0;strokeColor=#FF0000;" parent="1" edge="1">
          <mxGeometry width="50" height="50" relative="1" as="geometry">
            <mxPoint x="350" y="230" as="sourcePoint" />
            <mxPoint x="290" y="230" as="targetPoint" />
          </mxGeometry>
        </mxCell>
        <mxCell id="rEkYpKIjq7FoAjk0Uec6-569" value="" style="endArrow=none;html=1;rounded=0;strokeColor=#0000FF;" parent="1" edge="1">
          <mxGeometry width="50" height="50" relative="1" as="geometry">
            <mxPoint x="290" y="230" as="sourcePoint" />
            <mxPoint x="290" y="310" as="targetPoint" />
          </mxGeometry>
        </mxCell>
        <mxCell id="rEkYpKIjq7FoAjk0Uec6-570" value="" style="endArrow=none;html=1;rounded=0;strokeColor=#0000FF;" parent="1" edge="1">
          <mxGeometry width="50" height="50" relative="1" as="geometry">
            <mxPoint x="350" y="330" as="sourcePoint" />
            <mxPoint x="310" y="330" as="targetPoint" />
          </mxGeometry>
        </mxCell>
        <mxCell id="rEkYpKIjq7FoAjk0Uec6-571" value="" style="endArrow=none;html=1;rounded=0;strokeColor=#0000FF;" parent="1" edge="1">
          <mxGeometry width="50" height="50" relative="1" as="geometry">
            <mxPoint x="410" y="310" as="sourcePoint" />
            <mxPoint x="410" y="330" as="targetPoint" />
          </mxGeometry>
        </mxCell>
        <mxCell id="rEkYpKIjq7FoAjk0Uec6-572" value="" style="endArrow=none;html=1;rounded=0;strokeColor=#0000FF;" parent="1" edge="1">
          <mxGeometry width="50" height="50" relative="1" as="geometry">
            <mxPoint x="410" y="270" as="sourcePoint" />
            <mxPoint x="390" y="270" as="targetPoint" />
          </mxGeometry>
        </mxCell>
        <mxCell id="rEkYpKIjq7FoAjk0Uec6-573" value="" style="endArrow=none;html=1;rounded=0;strokeColor=#0000FF;" parent="1" edge="1">
          <mxGeometry width="50" height="50" relative="1" as="geometry">
            <mxPoint x="390" y="250" as="sourcePoint" />
            <mxPoint x="390" y="270" as="targetPoint" />
          </mxGeometry>
        </mxCell>
        <mxCell id="rEkYpKIjq7FoAjk0Uec6-574" value="" style="endArrow=none;html=1;rounded=0;strokeColor=#0000FF;" parent="1" edge="1">
          <mxGeometry width="50" height="50" relative="1" as="geometry">
            <mxPoint x="390" y="250" as="sourcePoint" />
            <mxPoint x="350" y="250" as="targetPoint" />
          </mxGeometry>
        </mxCell>
        <mxCell id="rEkYpKIjq7FoAjk0Uec6-575" value="" style="endArrow=none;html=1;rounded=0;strokeColor=#0000FF;" parent="1" edge="1">
          <mxGeometry width="50" height="50" relative="1" as="geometry">
            <mxPoint x="350" y="250" as="sourcePoint" />
            <mxPoint x="350" y="330" as="targetPoint" />
          </mxGeometry>
        </mxCell>
        <mxCell id="rEkYpKIjq7FoAjk0Uec6-576" value="" style="endArrow=none;html=1;rounded=0;strokeColor=#0000FF;" parent="1" edge="1">
          <mxGeometry width="50" height="50" relative="1" as="geometry">
            <mxPoint x="370" y="350" as="sourcePoint" />
            <mxPoint x="370" y="370" as="targetPoint" />
          </mxGeometry>
        </mxCell>
        <mxCell id="rEkYpKIjq7FoAjk0Uec6-577" value="" style="endArrow=none;html=1;rounded=0;strokeColor=#0000FF;" parent="1" edge="1">
          <mxGeometry width="50" height="50" relative="1" as="geometry">
            <mxPoint x="390" y="370" as="sourcePoint" />
            <mxPoint x="390" y="410" as="targetPoint" />
          </mxGeometry>
        </mxCell>
        <mxCell id="rEkYpKIjq7FoAjk0Uec6-578" value="" style="endArrow=none;html=1;rounded=0;strokeColor=#0000FF;" parent="1" edge="1">
          <mxGeometry width="50" height="50" relative="1" as="geometry">
            <mxPoint x="390" y="370" as="sourcePoint" />
            <mxPoint x="370" y="370" as="targetPoint" />
          </mxGeometry>
        </mxCell>
        <mxCell id="rEkYpKIjq7FoAjk0Uec6-579" value="" style="endArrow=none;html=1;rounded=0;strokeColor=#0000FF;" parent="1" edge="1">
          <mxGeometry width="50" height="50" relative="1" as="geometry">
            <mxPoint x="390" y="410" as="sourcePoint" />
            <mxPoint x="370" y="410" as="targetPoint" />
          </mxGeometry>
        </mxCell>
        <mxCell id="rEkYpKIjq7FoAjk0Uec6-580" value="" style="endArrow=none;html=1;rounded=0;strokeColor=#0000FF;" parent="1" edge="1">
          <mxGeometry width="50" height="50" relative="1" as="geometry">
            <mxPoint x="370" y="410" as="sourcePoint" />
            <mxPoint x="370" y="430" as="targetPoint" />
          </mxGeometry>
        </mxCell>
        <mxCell id="rEkYpKIjq7FoAjk0Uec6-581" value="" style="endArrow=none;html=1;rounded=0;strokeColor=#0000FF;" parent="1" edge="1">
          <mxGeometry width="50" height="50" relative="1" as="geometry">
            <mxPoint x="370" y="430" as="sourcePoint" />
            <mxPoint x="330" y="430" as="targetPoint" />
          </mxGeometry>
        </mxCell>
        <mxCell id="rEkYpKIjq7FoAjk0Uec6-582" value="" style="endArrow=none;html=1;rounded=0;strokeColor=#0000FF;" parent="1" edge="1">
          <mxGeometry width="50" height="50" relative="1" as="geometry">
            <mxPoint x="330" y="390" as="sourcePoint" />
            <mxPoint x="330" y="430" as="targetPoint" />
          </mxGeometry>
        </mxCell>
        <mxCell id="rEkYpKIjq7FoAjk0Uec6-583" value="" style="endArrow=none;html=1;rounded=0;strokeColor=#0000FF;" parent="1" edge="1">
          <mxGeometry width="50" height="50" relative="1" as="geometry">
            <mxPoint x="330" y="390" as="sourcePoint" />
            <mxPoint x="270" y="390" as="targetPoint" />
          </mxGeometry>
        </mxCell>
        <mxCell id="rEkYpKIjq7FoAjk0Uec6-584" value="" style="endArrow=none;html=1;rounded=0;strokeColor=#0000FF;" parent="1" edge="1">
          <mxGeometry width="50" height="50" relative="1" as="geometry">
            <mxPoint x="270" y="390" as="sourcePoint" />
            <mxPoint x="270" y="430" as="targetPoint" />
          </mxGeometry>
        </mxCell>
        <mxCell id="rEkYpKIjq7FoAjk0Uec6-585" value="" style="endArrow=none;html=1;rounded=0;strokeColor=#FF0000;" parent="1" edge="1">
          <mxGeometry width="50" height="50" relative="1" as="geometry">
            <mxPoint x="290" y="449.8" as="sourcePoint" />
            <mxPoint x="270" y="449.8" as="targetPoint" />
          </mxGeometry>
        </mxCell>
        <mxCell id="rEkYpKIjq7FoAjk0Uec6-586" value="" style="endArrow=none;html=1;rounded=0;strokeColor=#0000FF;" parent="1" edge="1">
          <mxGeometry width="50" height="50" relative="1" as="geometry">
            <mxPoint x="470" y="290" as="sourcePoint" />
            <mxPoint x="450" y="290" as="targetPoint" />
          </mxGeometry>
        </mxCell>
        <mxCell id="rEkYpKIjq7FoAjk0Uec6-587" value="" style="endArrow=none;html=1;rounded=0;strokeColor=#0000FF;" parent="1" edge="1">
          <mxGeometry width="50" height="50" relative="1" as="geometry">
            <mxPoint x="470" y="270" as="sourcePoint" />
            <mxPoint x="470" y="290" as="targetPoint" />
          </mxGeometry>
        </mxCell>
        <mxCell id="rEkYpKIjq7FoAjk0Uec6-588" value="" style="endArrow=none;html=1;rounded=0;strokeColor=#0000FF;" parent="1" edge="1">
          <mxGeometry width="50" height="50" relative="1" as="geometry">
            <mxPoint x="490" y="270" as="sourcePoint" />
            <mxPoint x="470" y="270" as="targetPoint" />
          </mxGeometry>
        </mxCell>
        <mxCell id="rEkYpKIjq7FoAjk0Uec6-589" value="" style="endArrow=none;html=1;rounded=0;strokeColor=#0000FF;" parent="1" edge="1">
          <mxGeometry width="50" height="50" relative="1" as="geometry">
            <mxPoint x="490" y="270" as="sourcePoint" />
            <mxPoint x="490" y="370" as="targetPoint" />
          </mxGeometry>
        </mxCell>
        <mxCell id="rEkYpKIjq7FoAjk0Uec6-590" value="" style="endArrow=none;html=1;rounded=0;strokeColor=#FF0000;" parent="1" edge="1">
          <mxGeometry width="50" height="50" relative="1" as="geometry">
            <mxPoint x="490" y="330" as="sourcePoint" />
            <mxPoint x="450" y="330" as="targetPoint" />
          </mxGeometry>
        </mxCell>
        <mxCell id="rEkYpKIjq7FoAjk0Uec6-591" value="" style="endArrow=none;html=1;rounded=0;strokeColor=#FF0000;" parent="1" edge="1">
          <mxGeometry width="50" height="50" relative="1" as="geometry">
            <mxPoint x="450" y="330" as="sourcePoint" />
            <mxPoint x="450" y="350" as="targetPoint" />
          </mxGeometry>
        </mxCell>
        <mxCell id="rEkYpKIjq7FoAjk0Uec6-592" value="" style="endArrow=none;html=1;rounded=0;strokeColor=#FF0000;" parent="1" edge="1">
          <mxGeometry width="50" height="50" relative="1" as="geometry">
            <mxPoint x="450" y="350" as="sourcePoint" />
            <mxPoint x="430" y="350" as="targetPoint" />
          </mxGeometry>
        </mxCell>
        <mxCell id="rEkYpKIjq7FoAjk0Uec6-593" value="" style="endArrow=none;html=1;rounded=0;strokeColor=#0000FF;" parent="1" edge="1">
          <mxGeometry width="50" height="50" relative="1" as="geometry">
            <mxPoint x="430" y="370" as="sourcePoint" />
            <mxPoint x="430" y="450" as="targetPoint" />
          </mxGeometry>
        </mxCell>
        <mxCell id="rEkYpKIjq7FoAjk0Uec6-594" value="" style="endArrow=none;html=1;rounded=0;strokeColor=#0000FF;" parent="1" edge="1">
          <mxGeometry width="50" height="50" relative="1" as="geometry">
            <mxPoint x="490" y="370" as="sourcePoint" />
            <mxPoint x="430" y="370" as="targetPoint" />
          </mxGeometry>
        </mxCell>
        <mxCell id="rEkYpKIjq7FoAjk0Uec6-595" value="" style="endArrow=none;html=1;rounded=0;strokeColor=#0000FF;" parent="1" edge="1">
          <mxGeometry width="50" height="50" relative="1" as="geometry">
            <mxPoint x="470" y="450" as="sourcePoint" />
            <mxPoint x="430" y="450" as="targetPoint" />
          </mxGeometry>
        </mxCell>
        <mxCell id="rEkYpKIjq7FoAjk0Uec6-596" value="" style="endArrow=none;html=1;rounded=0;strokeColor=#0000FF;" parent="1" edge="1">
          <mxGeometry width="50" height="50" relative="1" as="geometry">
            <mxPoint x="470" y="410" as="sourcePoint" />
            <mxPoint x="470" y="450" as="targetPoint" />
          </mxGeometry>
        </mxCell>
        <mxCell id="rEkYpKIjq7FoAjk0Uec6-597" value="" style="endArrow=none;html=1;rounded=0;strokeColor=#0000FF;" parent="1" edge="1">
          <mxGeometry width="50" height="50" relative="1" as="geometry">
            <mxPoint x="510" y="410" as="sourcePoint" />
            <mxPoint x="470" y="410" as="targetPoint" />
          </mxGeometry>
        </mxCell>
        <mxCell id="rEkYpKIjq7FoAjk0Uec6-1" value="" style="ellipse;whiteSpace=wrap;html=1;aspect=fixed;fillColor=#000000;strokeColor=#000000;" parent="1" vertex="1">
          <mxGeometry x="385" y="265" width="10" height="10" as="geometry" />
        </mxCell>
        <mxCell id="rEkYpKIjq7FoAjk0Uec6-30" value="" style="ellipse;whiteSpace=wrap;html=1;aspect=fixed;fillColor=#FFFFFF;strokeColor=#FF0000;" parent="1" vertex="1">
          <mxGeometry x="285" y="445" width="10" height="10" as="geometry" />
        </mxCell>
        <mxCell id="rEkYpKIjq7FoAjk0Uec6-49" value="" style="ellipse;whiteSpace=wrap;html=1;aspect=fixed;fillColor=#FFFFFF;strokeColor=#FF0000;" parent="1" vertex="1">
          <mxGeometry x="525" y="225" width="10" height="10" as="geometry" />
        </mxCell>
        <mxCell id="rEkYpKIjq7FoAjk0Uec6-64" value="" style="ellipse;whiteSpace=wrap;html=1;aspect=fixed;fillColor=default;strokeColor=#FF0000;" parent="1" vertex="1">
          <mxGeometry x="525" y="445" width="10" height="10" as="geometry" />
        </mxCell>
        <mxCell id="3gt8irhAJKMv--HSv9Co-1" value="" style="endArrow=none;html=1;rounded=0;strokeColor=#FF0000;" edge="1" parent="1">
          <mxGeometry width="50" height="50" relative="1" as="geometry">
            <mxPoint x="350" y="210" as="sourcePoint" />
            <mxPoint x="350" y="230" as="targetPoint" />
          </mxGeometry>
        </mxCell>
        <mxCell id="3gt8irhAJKMv--HSv9Co-2" value="" style="endArrow=none;html=1;rounded=0;strokeColor=#FF0000;" edge="1" parent="1">
          <mxGeometry width="50" height="50" relative="1" as="geometry">
            <mxPoint x="290" y="310" as="sourcePoint" />
            <mxPoint x="290" y="330" as="targetPoint" />
          </mxGeometry>
        </mxCell>
        <mxCell id="3gt8irhAJKMv--HSv9Co-3" value="" style="endArrow=none;html=1;rounded=0;strokeColor=#FF0000;" edge="1" parent="1">
          <mxGeometry width="50" height="50" relative="1" as="geometry">
            <mxPoint x="290" y="330" as="sourcePoint" />
            <mxPoint x="310" y="330" as="targetPoint" />
          </mxGeometry>
        </mxCell>
        <mxCell id="3gt8irhAJKMv--HSv9Co-4" value="" style="endArrow=none;html=1;rounded=0;strokeColor=#FF0000;" edge="1" parent="1">
          <mxGeometry width="50" height="50" relative="1" as="geometry">
            <mxPoint x="350" y="330" as="sourcePoint" />
            <mxPoint x="390" y="330" as="targetPoint" />
          </mxGeometry>
        </mxCell>
        <mxCell id="3gt8irhAJKMv--HSv9Co-5" value="" style="endArrow=none;html=1;rounded=0;strokeColor=#0000FF;" edge="1" parent="1">
          <mxGeometry width="50" height="50" relative="1" as="geometry">
            <mxPoint x="410" y="330" as="sourcePoint" />
            <mxPoint x="390" y="330" as="targetPoint" />
          </mxGeometry>
        </mxCell>
        <mxCell id="3gt8irhAJKMv--HSv9Co-8" value="" style="endArrow=none;html=1;rounded=0;strokeColor=#FF0000;" edge="1" parent="1">
          <mxGeometry width="50" height="50" relative="1" as="geometry">
            <mxPoint x="410" y="270" as="sourcePoint" />
            <mxPoint x="410" y="310" as="targetPoint" />
          </mxGeometry>
        </mxCell>
        <mxCell id="3gt8irhAJKMv--HSv9Co-9" value="" style="endArrow=none;html=1;rounded=0;strokeColor=#FF0000;" edge="1" parent="1">
          <mxGeometry width="50" height="50" relative="1" as="geometry">
            <mxPoint x="410" y="290" as="sourcePoint" />
            <mxPoint x="450" y="290" as="targetPoint" />
          </mxGeometry>
        </mxCell>
        <mxCell id="3gt8irhAJKMv--HSv9Co-10" value="" style="endArrow=none;html=1;rounded=0;strokeColor=#FF0000;" edge="1" parent="1">
          <mxGeometry width="50" height="50" relative="1" as="geometry">
            <mxPoint x="370" y="330" as="sourcePoint" />
            <mxPoint x="370" y="350" as="targetPoint" />
          </mxGeometry>
        </mxCell>
        <mxCell id="3gt8irhAJKMv--HSv9Co-11" value="" style="endArrow=none;html=1;rounded=0;strokeColor=#FF0000;" edge="1" parent="1">
          <mxGeometry width="50" height="50" relative="1" as="geometry">
            <mxPoint x="270" y="430" as="sourcePoint" />
            <mxPoint x="270" y="450" as="targetPoint" />
          </mxGeometry>
        </mxCell>
        <mxCell id="3gt8irhAJKMv--HSv9Co-12" value="" style="endArrow=none;html=1;rounded=0;strokeColor=#FF0000;" edge="1" parent="1">
          <mxGeometry width="50" height="50" relative="1" as="geometry">
            <mxPoint x="430" y="350" as="sourcePoint" />
            <mxPoint x="430" y="370" as="targetPoint" />
          </mxGeometry>
        </mxCell>
        <mxCell id="rEkYpKIjq7FoAjk0Uec6-67" value="" style="whiteSpace=wrap;html=1;aspect=fixed;fillColor=none;strokeColor=#000000;" parent="1" vertex="1">
          <mxGeometry x="240" y="160" width="300" height="300" as="geometry" />
        </mxCell>
      </root>
    </mxGraphModel>
  </diagram>
</mxfile>
